<?xml version="1.0" encoding="utf-8"?>
<!-- Generator: Adobe Illustrator 16.0.0, SVG Export Plug-In . SVG Version: 6.00 Build 0)  -->
<!DOCTYPE svg PUBLIC "-//W3C//DTD SVG 1.1//EN" "http://www.w3.org/Graphics/SVG/1.1/DTD/svg11.dtd">
<svg version="1.1" id="Warstwa_1" xmlns="http://www.w3.org/2000/svg" xmlns:xlink="http://www.w3.org/1999/xlink" x="0px" y="0px"
	 width="100px" height="100px" viewBox="0 0 100 100" enable-background="new 0 0 100 100" xml:space="preserve">
<g>
	<g>
		<path fill="#262626" d="M43.687,36.863c0.351,1.116,0.803,2.231,1.418,3.257c0.587,1.033,1.297,1.989,2.02,2.809
			c0.655,0.726,2.132,2.407,2.669,2.834c0.136-0.955,0.253-1.931,0.275-2.922c0.057-0.698,0.01-1.392-0.003-2.075
			c-0.012-0.688-0.135-1.351-0.193-2.002c-0.116-0.641-0.274-1.254-0.399-1.839c-0.207-0.565-0.399-1.097-0.577-1.589
			c-0.25-0.46-0.48-0.885-0.683-1.26c-0.178-0.395-0.47-0.646-0.643-0.898c-0.385-0.484-0.605-0.761-0.605-0.761
			s0.241,0.259,0.658,0.714c0.194,0.241,0.51,0.477,0.718,0.86c0.234,0.365,0.499,0.779,0.787,1.23c0.22,0.49,0.457,1.02,0.71,1.583
			c0.174,0.586,0.38,1.206,0.547,1.858c0.11,0.66,0.287,1.341,0.352,2.043c0.063,0.703,0.164,1.417,0.16,2.135
			c0.03,0.815,0.018,1.622-0.02,2.415c0.064-0.069,0.139-0.126,0.2-0.203c0.605-0.679,1.221-1.656,1.719-2.818
			c0.481-1.163,0.804-2.508,0.877-3.919c0.104-1.415-0.092-2.889-0.514-4.321c-0.436-1.425-1.109-2.816-2.053-4.004
			c-0.915-1.198-2.076-2.206-3.293-2.867c-1.22-0.661-2.48-0.948-3.363-0.919c-0.43-0.015-0.809,0.104-1.031,0.164
			c-0.225,0.076-0.345,0.115-0.345,0.115s0.028,0.121,0.074,0.348c0.047,0.216,0.053,0.584,0.087,0.924
			c0.032,0.75-0.042,1.655-0.134,2.644C42.938,32.344,42.98,34.619,43.687,36.863z M55.175,44.02
			c0.389-0.369,0.828-0.666,1.219-0.99c0.419-0.289,0.848-0.537,1.237-0.787c0.425-0.194,0.823-0.377,1.192-0.547
			c0.391-0.113,0.748-0.218,1.063-0.31c0.31-0.114,0.606-0.093,0.837-0.134c0.465-0.05,0.73-0.078,0.73-0.078
			s-0.264,0.048-0.725,0.131c-0.225,0.058-0.514,0.056-0.811,0.191c-0.305,0.112-0.646,0.241-1.018,0.378
			c-0.346,0.191-0.723,0.398-1.119,0.619c-0.367,0.271-0.76,0.542-1.144,0.85c-0.361,0.341-0.761,0.657-1.108,1.044
			c-0.349,0.382-0.723,0.754-1.038,1.18c-0.48,0.578-0.899,1.193-1.299,1.804c0.519,0.025,2.198-0.198,2.933-0.286
			c0.82-0.107,1.7-0.298,2.553-0.593c0.858-0.278,1.676-0.688,2.43-1.146c1.522-0.928,2.678-2.203,3.555-3.393
			c0.439-0.609,0.849-1.162,1.24-1.572c0.188-0.176,0.376-0.385,0.51-0.484c0.14-0.104,0.215-0.159,0.215-0.159
			s-0.048-0.086-0.138-0.241c-0.101-0.144-0.255-0.401-0.506-0.606c-0.49-0.456-1.351-0.921-2.376-1.152
			c-1.022-0.229-2.185-0.234-3.305-0.007c-1.129,0.208-2.204,0.664-3.162,1.259c-0.954,0.606-1.799,1.348-2.446,2.208
			c-0.659,0.84-1.145,1.765-1.45,2.668c-0.297,0.911-0.432,1.772-0.426,2.462c-0.003,0.072,0.01,0.144,0.014,0.215
			c0.375-0.471,0.77-0.936,1.191-1.387C54.374,44.746,54.79,44.388,55.175,44.02z M32.945,40.708
			c0.392,0.411,0.798,0.963,1.239,1.571c0.876,1.191,2.033,2.466,3.555,3.394c0.755,0.459,1.568,0.868,2.432,1.147
			c0.85,0.296,1.731,0.487,2.549,0.593c0.736,0.087,2.416,0.311,2.933,0.284c-0.396-0.611-0.817-1.224-1.299-1.802
			c-0.315-0.425-0.688-0.795-1.035-1.181c-0.349-0.385-0.75-0.702-1.108-1.043c-0.385-0.308-0.781-0.58-1.146-0.85
			c-0.396-0.219-0.773-0.427-1.118-0.619c-0.373-0.137-0.715-0.264-1.017-0.377c-0.298-0.135-0.587-0.133-0.813-0.192
			c-0.461-0.084-0.723-0.13-0.723-0.13s0.265,0.028,0.731,0.078c0.231,0.042,0.526,0.02,0.836,0.133
			c0.315,0.091,0.672,0.196,1.061,0.311c0.371,0.169,0.77,0.354,1.195,0.547c0.391,0.246,0.817,0.499,1.237,0.787
			c0.391,0.323,0.83,0.621,1.217,0.991c0.384,0.368,0.798,0.724,1.154,1.135c0.422,0.449,0.817,0.916,1.192,1.386
			c-0.005,0.09,0,0.183-0.018,0.276c-0.04,0.154,0.257,0.797,0.406,1.036c0.107,0.176,0.196,0.343,0.297,0.516
			c-5.384,1.028-9.751,4.908-11.478,10.01l0.357,0.046c0.444,0.002,1.122,0.109,2.282,0.314c0.023-0.344,0.143-0.68,0.358-0.959
			c0.854-1.131,2.097-1.729,3.598-1.729c2.252,0.007,4.636,0.074,7.047,0.805c1.27,0.382,2.571,0.311,3.892-0.22
			c3.799-1.521,7.137-1.379,9.832,0.379c0.334,0.216,0.68,0.446,1.031,0.683c-1.918-4.889-6.304-8.535-11.624-9.404
			c0.145-0.253,0.283-0.507,0.444-0.769c0.148-0.239,0.446-0.883,0.406-1.034c-0.016-0.095-0.014-0.186-0.016-0.277
			c-0.542,0.681-1.028,1.365-1.457,2.018c-0.264-0.033-0.536-0.043-0.803-0.062c0.139-1.015,0.253-2.103,0.308-3.245
			c-0.085,0.088-0.159,0.181-0.257,0.261c-0.173,0.115-0.436,1.016-0.496,1.385c-0.093,0.536-0.197,1.044-0.306,1.541
			c-0.093-0.001-0.18-0.022-0.274-0.022c-0.774,0-1.535,0.064-2.279,0.177c-0.379-0.566-0.789-1.142-1.251-1.727
			c0.002-0.07,0.017-0.14,0.012-0.213c0.008-0.688-0.127-1.55-0.425-2.461c-0.305-0.902-0.79-1.828-1.452-2.667
			c-0.647-0.86-1.49-1.603-2.444-2.209c-0.96-0.594-2.034-1.05-3.164-1.258c-1.117-0.228-2.282-0.225-3.305,0.006
			c-1.023,0.231-1.888,0.696-2.376,1.152c-0.251,0.205-0.409,0.461-0.506,0.604c-0.09,0.156-0.139,0.24-0.139,0.24
			s0.074,0.055,0.214,0.162C32.569,40.321,32.757,40.529,32.945,40.708z M69.88,65.804c-2.323-3.152-5.362-5.502-8.565-7.588
			c-2.599-1.691-5.561-1.331-8.317-0.228c-1.69,0.677-3.362,0.758-4.986,0.265c-2.167-0.654-4.344-0.726-6.555-0.732
			c-0.948-0.002-1.735,0.33-2.299,1.074c-0.315,0.415,2.266,2.143,4.479,2.143c-0.411,0.82-7.566-0.916-8.521-0.844L29.703,59.2
			c-1.924-0.158-1.921-0.883-3.813,0.186c-0.064,0.037-0.159,0.037-0.236,0.033c-1.053-0.061-1.647,0.273-2.233,0.971
			c-0.338,0.402-0.31,0.896-0.13,1.366c0.19,0.489,0.674,0.362,1.069,0.519c2.421,0.959,3.202,1.428,6.485,2.238
			c2.334,0.577,4.61,1.281,6.941,1.809c0.964,0.219,1.944,0.381,2.813,0.871c1.846,1.039,3.81,1.354,5.92,1.258
			c2.395-0.107,4.795-0.012,7.196-0.027c4.211-0.019,7.41,1.668,9.577,5.377l13.548-0.027C73.886,70.312,72.581,69.474,69.88,65.804
			z"/>
	</g>
</g>
</svg>
