<?xml version="1.0" encoding="utf-8"?>
<!-- Generator: Adobe Illustrator 16.0.0, SVG Export Plug-In . SVG Version: 6.00 Build 0)  -->
<!DOCTYPE svg PUBLIC "-//W3C//DTD SVG 1.1//EN" "http://www.w3.org/Graphics/SVG/1.1/DTD/svg11.dtd">
<svg version="1.1" id="Warstwa_1" xmlns="http://www.w3.org/2000/svg" xmlns:xlink="http://www.w3.org/1999/xlink" x="0px" y="0px"
	 width="28px" height="44px" viewBox="0 0 28 44" enable-background="new 0 0 28 44" xml:space="preserve">
<path fill="none" stroke="#2A2A2A" stroke-width="2" stroke-miterlimit="10" d="M25,30.292C25,36.482,20.075,41.5,14,41.5l0,0
	c-6.076,0-11-5.018-11-11.208V13.708C3,7.517,7.924,2.5,14,2.5l0,0c6.075,0,11,5.017,11,11.208V30.292z"/>
<path fill="#2A2A2A" d="M15.5,17.79c0,0.668-0.672,1.21-1.5,1.21l0,0c-0.83,0-1.5-0.542-1.5-1.21v-7.58C12.5,9.541,13.17,9,14,9l0,0
	c0.828,0,1.5,0.541,1.5,1.209V17.79z"/>
</svg>
