<?xml version="1.0" encoding="utf-8"?>
<!-- Generator: Adobe Illustrator 16.0.0, SVG Export Plug-In . SVG Version: 6.00 Build 0)  -->
<!DOCTYPE svg PUBLIC "-//W3C//DTD SVG 1.1//EN" "http://www.w3.org/Graphics/SVG/1.1/DTD/svg11.dtd">
<svg version="1.1" id="Warstwa_1" xmlns="http://www.w3.org/2000/svg" xmlns:xlink="http://www.w3.org/1999/xlink" x="0px" y="0px"
	 width="400px" height="200px" viewBox="-150 0 400 200" enable-background="new -150 0 400 200" xml:space="preserve">
<g>
	<g>
		<path fill="#262626" d="M-6.313,36.861c0.351,1.116,0.803,2.231,1.418,3.258c0.587,1.032,1.297,1.988,2.02,2.809
			c0.655,0.726,2.132,2.407,2.669,2.834c0.136-0.955,0.253-1.931,0.275-2.922c0.057-0.698,0.01-1.392-0.003-2.075
			c-0.012-0.688-0.135-1.351-0.193-2.002c-0.116-0.641-0.274-1.254-0.399-1.839c-0.207-0.565-0.399-1.097-0.577-1.589
			c-0.25-0.46-0.48-0.885-0.683-1.26c-0.178-0.396-0.47-0.646-0.643-0.898c-0.385-0.484-0.605-0.761-0.605-0.761
			s0.241,0.259,0.658,0.714c0.194,0.241,0.51,0.477,0.718,0.86c0.234,0.364,0.499,0.778,0.787,1.229
			c0.22,0.49,0.457,1.021,0.71,1.583c0.174,0.586,0.38,1.206,0.547,1.858c0.11,0.659,0.287,1.341,0.352,2.043
			c0.063,0.703,0.164,1.417,0.16,2.135c0.029,0.814,0.018,1.622-0.021,2.415c0.063-0.069,0.14-0.126,0.2-0.203
			c0.605-0.679,1.221-1.656,1.719-2.818c0.48-1.163,0.805-2.508,0.877-3.919c0.104-1.415-0.092-2.889-0.514-4.32
			c-0.436-1.426-1.109-2.816-2.053-4.004c-0.916-1.198-2.077-2.206-3.293-2.867c-1.22-0.661-2.48-0.948-3.363-0.919
			c-0.43-0.016-0.809,0.104-1.031,0.164c-0.225,0.075-0.345,0.114-0.345,0.114s0.028,0.121,0.074,0.349
			c0.047,0.216,0.053,0.584,0.087,0.924c0.032,0.75-0.042,1.655-0.134,2.644C-7.062,32.343-7.02,34.618-6.313,36.861z M5.175,44.019
			c0.39-0.369,0.828-0.666,1.22-0.99c0.418-0.288,0.848-0.536,1.236-0.786c0.426-0.194,0.823-0.377,1.191-0.548
			c0.392-0.112,0.748-0.218,1.064-0.31c0.309-0.114,0.605-0.093,0.836-0.134c0.465-0.05,0.73-0.078,0.73-0.078
			s-0.264,0.048-0.725,0.131c-0.226,0.058-0.515,0.056-0.812,0.191c-0.306,0.111-0.646,0.24-1.019,0.378
			c-0.346,0.19-0.723,0.397-1.119,0.619c-0.366,0.271-0.76,0.542-1.143,0.85c-0.361,0.341-0.762,0.657-1.109,1.044
			c-0.348,0.382-0.723,0.754-1.037,1.18c-0.48,0.578-0.899,1.193-1.299,1.805c0.519,0.024,2.197-0.198,2.933-0.286
			c0.819-0.107,1.7-0.298,2.554-0.593c0.857-0.278,1.676-0.688,2.43-1.146c1.521-0.928,2.678-2.203,3.555-3.393
			c0.439-0.609,0.85-1.162,1.24-1.572c0.188-0.176,0.375-0.385,0.51-0.484c0.141-0.104,0.215-0.159,0.215-0.159
			s-0.048-0.086-0.139-0.24c-0.1-0.145-0.254-0.401-0.506-0.606c-0.489-0.456-1.351-0.921-2.375-1.151
			c-1.022-0.229-2.186-0.234-3.305-0.008c-1.13,0.208-2.205,0.664-3.162,1.26c-0.955,0.605-1.8,1.348-2.447,2.208
			c-0.658,0.84-1.145,1.765-1.449,2.668c-0.297,0.91-0.432,1.771-0.426,2.462c-0.004,0.071,0.01,0.144,0.014,0.215
			c0.375-0.471,0.77-0.937,1.191-1.387C4.374,44.745,4.79,44.387,5.175,44.019z M-17.055,40.707c0.392,0.411,0.798,0.963,1.239,1.57
			c0.876,1.191,2.033,2.467,3.555,3.395c0.755,0.459,1.568,0.868,2.432,1.146c0.85,0.297,1.731,0.487,2.549,0.594
			c0.736,0.087,2.416,0.311,2.933,0.283c-0.396-0.61-0.817-1.224-1.299-1.802c-0.315-0.425-0.688-0.795-1.035-1.181
			c-0.349-0.385-0.75-0.702-1.108-1.043c-0.385-0.309-0.781-0.58-1.146-0.851c-0.396-0.219-0.773-0.427-1.118-0.618
			c-0.373-0.138-0.715-0.265-1.017-0.377c-0.298-0.136-0.587-0.134-0.813-0.192c-0.461-0.084-0.723-0.13-0.723-0.13
			s0.265,0.028,0.731,0.078c0.231,0.042,0.526,0.02,0.836,0.133c0.315,0.091,0.672,0.196,1.061,0.311
			c0.371,0.169,0.77,0.354,1.195,0.547c0.391,0.246,0.817,0.499,1.237,0.787c0.391,0.323,0.83,0.621,1.217,0.991
			c0.384,0.368,0.798,0.725,1.154,1.135c0.422,0.449,0.817,0.916,1.192,1.387c-0.005,0.09,0,0.183-0.018,0.275
			c-0.04,0.154,0.257,0.797,0.406,1.036c0.107,0.176,0.196,0.343,0.297,0.517c-5.384,1.027-9.751,4.908-11.478,10.01l0.357,0.046
			c0.444,0.002,1.122,0.109,2.282,0.313c0.023-0.344,0.143-0.68,0.358-0.959c0.854-1.131,2.097-1.729,3.598-1.729
			c2.252,0.008,4.636,0.074,7.047,0.805c1.27,0.383,2.571,0.312,3.892-0.22c3.799-1.521,7.137-1.379,9.832,0.38
			c0.334,0.215,0.68,0.445,1.031,0.682c-1.918-4.889-6.305-8.534-11.624-9.403c0.146-0.253,0.282-0.507,0.444-0.77
			c0.147-0.238,0.445-0.883,0.406-1.034c-0.017-0.095-0.015-0.186-0.017-0.276c-0.542,0.681-1.028,1.365-1.457,2.018
			c-0.265-0.033-0.536-0.043-0.804-0.062c0.14-1.016,0.254-2.104,0.309-3.245c-0.085,0.088-0.158,0.181-0.257,0.261
			c-0.173,0.115-0.436,1.017-0.496,1.385c-0.093,0.536-0.197,1.044-0.306,1.541c-0.093-0.001-0.18-0.021-0.274-0.021
			c-0.774,0-1.535,0.063-2.279,0.177c-0.379-0.565-0.789-1.142-1.251-1.727c0.002-0.07,0.017-0.141,0.012-0.213
			c0.008-0.688-0.127-1.551-0.425-2.462c-0.305-0.901-0.79-1.827-1.452-2.667c-0.647-0.859-1.49-1.603-2.444-2.209
			c-0.96-0.594-2.034-1.05-3.164-1.258c-1.117-0.228-2.282-0.225-3.305,0.006c-1.023,0.231-1.888,0.696-2.376,1.152
			c-0.251,0.205-0.409,0.461-0.506,0.604c-0.09,0.155-0.139,0.239-0.139,0.239s0.074,0.056,0.214,0.162
			C-17.431,40.319-17.243,40.527-17.055,40.707z M19.88,65.804c-2.323-3.152-5.362-5.503-8.565-7.589
			c-2.599-1.69-5.561-1.331-8.316-0.228c-1.689,0.677-3.362,0.758-4.986,0.265c-2.167-0.653-4.344-0.726-6.555-0.731
			c-0.948-0.002-1.735,0.33-2.299,1.074c-0.315,0.414,2.266,2.143,4.479,2.143c-0.411,0.82-7.566-0.916-8.521-0.844l-5.413-0.694
			c-1.924-0.158-1.921-0.884-3.813,0.186c-0.064,0.037-0.159,0.037-0.236,0.033c-1.053-0.062-1.647,0.272-2.233,0.972
			c-0.338,0.401-0.31,0.896-0.13,1.365c0.19,0.489,0.674,0.362,1.069,0.52c2.421,0.959,3.202,1.428,6.485,2.238
			c2.334,0.576,4.61,1.28,6.941,1.809c0.964,0.219,1.944,0.381,2.813,0.871c1.846,1.039,3.81,1.354,5.92,1.258
			c2.395-0.107,4.795-0.012,7.196-0.027c4.211-0.019,7.41,1.668,9.577,5.377l13.548-0.027C23.887,70.312,22.581,69.474,19.88,65.804
			z"/>
	</g>
</g>
<g>
	<g>
		<path fill="#262626" d="M-105.192,51.873c0.219,0.688,0.858,1.154,1.579,1.154h20.303c0.767,0,1.433-0.525,1.612-1.271
			l3.761-15.681c0.19-0.793,0.006-1.631-0.499-2.273c-0.505-0.64-1.276-1.015-2.093-1.015h-27.117c-0.851,0-1.65,0.408-2.152,1.093
			c-0.501,0.69-0.645,1.575-0.385,2.385L-105.192,51.873z M-79.077,55.98h-26.187c-0.929,0-1.745-0.594-2.029-1.476l-7.208-22.353
			c-0.68-2.112-2.628-3.532-4.846-3.532h-1.575c-1.341,0-2.427,1.088-2.427,2.429c0,1.342,1.086,2.429,2.427,2.429h1.575
			c0.104,0,0.194,0.066,0.226,0.164l7.208,22.352c0.935,2.898,3.607,4.844,6.65,4.844h26.187c1.341,0,2.427-1.086,2.427-2.428
			S-77.736,55.98-79.077,55.98z M-103.543,63.635c-2.138,0-3.871,1.734-3.871,3.873s1.732,3.871,3.871,3.871
			c2.137,0,3.871-1.732,3.871-3.871S-101.406,63.635-103.543,63.635z M-83.214,63.635c-2.137,0-3.871,1.734-3.871,3.873
			s1.733,3.871,3.871,3.871c2.138,0,3.871-1.732,3.871-3.871S-81.076,63.635-83.214,63.635z"/>
	</g>
</g>
<path fill="#262626" d="M113.932,60.496c0.641,0.045,1.284,0.091,1.917,0.116c-1.572,2.366-3.697,4.419-6.322,5.938
	c-2.627,1.514-5.463,2.34-8.289,2.518c0.299-0.582,0.599-1.175,0.887-1.778c1.497-0.185,2.983-0.571,4.426-1.167
	c0.018-0.033,0.033-0.057,0.039-0.086c0.052-0.181,0.214-0.365,0.214-0.365l-0.085-0.211l0.186-0.264c0,0,0.209-0.341,0.34-0.443
	c0.131-0.104,1.229-1.053,1.468-1.232c0.207-0.164,1.118-0.849,1.518-1.173c0.055-0.044,0.099-0.086,0.136-0.112
	c0.262-0.236,0.764-0.869,0.942-1.159c0.089-0.133,0.226-0.471,0.354-0.793h-0.003C112.421,60.368,113.181,60.439,113.932,60.496z
	 M95.319,61.788c-0.071-0.012,0.021,0.039,0.082,0.071C95.382,61.82,95.356,61.794,95.319,61.788z M109.606,60.447
	c0.19,0.023,0.439,0.006,0.627,0h0.056c0.185,0,0.341-0.079,0.63-0.237l0.021-0.012l0,0c-0.232-0.03-0.471-0.06-0.703-0.093
	c-0.231-0.034-0.465-0.063-0.699-0.1c0.166,0.128,0.277,0.233,0.23,0.253C109.634,60.314,109.397,60.421,109.606,60.447z
	 M95.403,61.859c0.001,0.002,0.002,0.003,0.002,0.007C95.473,61.896,95.445,61.883,95.403,61.859z M101.321,47.705
	c0,0,0.013,0.016,0.028,0.032C101.365,47.708,101.321,47.705,101.321,47.705z M107.644,51.883h-0.04l-0.036,0.15
	c-0.166,0.612-0.335,1.233-0.512,1.853c0.143,0.003,0.276,0.016,0.276,0.016s0.156-0.069,0.202-0.272
	c0.041-0.202,0.16-0.429,0.16-0.429s0.04,0.008,0.111,0.023c0.044-0.083,0.097-0.2,0.097-0.342c0-0.282-0.124-0.345-0.124-0.499
	c0-0.156,0.061-0.531,0.061-0.531L107.644,51.883z M106.809,54.719l-0.084,0.283l0.13-0.023c0,0,0.032,0.09,0.079,0.216
	c0.031-0.068,0.05-0.121,0.05-0.121s0-0.089-0.044-0.271C106.934,54.773,106.874,54.743,106.809,54.719z M108.448,48.702
	l-0.041-0.021c-0.092,0.378-0.178,0.754-0.274,1.127c0.065,0.041,0.019,0.054,0.284,0.064c0.377,0.02,0.115,0.02,0.396,0.02
	c0.282,0,0.327,0.034,0.377-0.085c0.048-0.115,0.065,0.065,0.065-0.246c0-0.316-0.148-0.444-0.246-0.528
	C108.909,48.953,108.744,48.833,108.448,48.702z M126.44,57.104c-0.844,3.155-10.02,3.533-21.66,1.202
	c-3.811,11.273-8.724,19.05-11.871,18.207c-1.984-0.534-2.867-4.392-2.668-10.094c0.068,0.036,0.137,0.077,0.203,0.112
	c-2.801-1.621-5.225-3.97-6.957-6.976c-1.514-2.634-2.334-5.477-2.515-8.313c0.554,0.29,1.114,0.566,1.687,0.844
	c2.039,0.978,4.178,1.872,6.348,2.671h-0.006l0.006,0.114l-0.313,0.555l-0.289,0.182l0.078,0.131l0.053,0.263h-0.16
	c0,0,0,0.365,0,0.578c0,0.21,0.422,0.288,0.422,0.288l-0.131,0.083c0,0,0.027,0.128,0.158,0.341
	c0.131,0.212,0.234,0.396,0.288,0.576c0.053,0.184,0.131,0.705,0.131,0.705s0.343,0.578,0.499,0.819
	c0.158,0.233,0.473,0.552,0.604,0.813c0.131,0.264,0.42,0.132,0.969,0.264c0.552,0.131,0.785,0.314,0.785,0.314
	s0.29,0.234,0.474,0.343c0.182,0.102,0.365,0.102,0.863,0.102c0.477,0,0.166,0.027,0.748,0.118l0.094,0.013
	c0.699,0.104,0.147,0.053,0.812,0.359l0.027,0.012c0.163,0.072,0.25,0.106,0.297,0.132c0.052,0.122,0.029,0.35,0.047,0.443
	c0.027,0.131,0.211-0.025,0.342-0.025c0.1,0,0.123,0.078,0.237,0.15c0.033,0.023,0.075,0.041,0.128,0.06
	c0.234,0.078,0.286-0.078,0.286-0.078l0.265,0.314l0.21,0.288l-0.21,0.502l-0.183,0.183c0,0,0.028-0.236,0-0.425
	c-0.028-0.182-0.184,0.084-0.184,0.084l-0.157,0.499l0.574,0.554l0.174,0.156l0.375,0.346l0.025,0.066l0.213,0.617l-0.028,0.209
	l0.131,0.346c0,0-0.166,0.072-0.315,0.104c-0.059,0.015-0.11,0.026-0.156,0.026c-0.077,0-0.168,0.09-0.244,0.183
	c-0.084,0.099-0.148,0.21-0.148,0.21s0.06,0.117,0.148,0.238c0.055,0.078,0.121,0.156,0.192,0.208c0.036,0.03,0.07,0.042,0.103,0.07
	c0.028,0.003,0.056,0.011,0.084,0.015c-0.006,0.014-0.013,0.022-0.02,0.032l0,0h0.004l-0.078,0.134l0,0
	c-0.229,0.395-0.514,0.88-0.844,1.395c-1.918-0.373-3.775-1.041-5.501-1.98c0.003,0,0.006,0.002,0.009,0.004
	c0.052,3.444,0.695,5.678,1.953,6.016c2.383,0.64,6.248-5.723,9.438-15.03c-1.342-0.299-2.703-0.637-4.086-1.012
	C83.595,52.839,72.563,46.63,73.561,42.898c0.533-1.99,4.374-2.875,10.062-2.675c-0.065,0.112-0.128,0.229-0.189,0.34
	c1.619-2.864,3.993-5.35,7.041-7.113c3.035-1.76,6.354-2.577,9.626-2.558c-0.114-0.002-0.233-0.006-0.352-0.004
	c2.671-5.035,5.359-7.933,7.341-7.401c3.724,1.001,3.571,13.687-0.342,28.325c-0.365,1.388-0.761,2.741-1.164,4.056
	c9.635,1.886,17.058,1.712,17.706-0.68c0.337-1.261-1.272-2.934-4.222-4.699c0-0.009,0-0.017,0-0.023
	c-0.051,1.969-0.402,3.922-1.041,5.775c-0.609,0.033-1.169,0.034-1.622,0.034l0,0c-0.369,0-0.659-0.006-0.831-0.013
	c-0.494-0.019-0.99-0.04-1.49-0.077c0.087-0.309,0.166-0.535,0.18-0.661c0.025-0.161,0.115-0.407,0.115-0.407l-0.586-0.135
	l-0.068-0.385l-0.246-0.044l-0.229,0.433c0,0-0.178,0.271-0.383,0.38c-0.199,0.111-0.471,0.135-0.471,0.135l0.065-0.311
	c-0.108-0.047-0.337,0.042-0.337,0.042l-0.024-0.296c0,0-0.134-0.295-0.246-0.313c-0.112-0.025-0.294-0.271-0.294-0.271
	s-0.067-0.093-0.135-0.273c-0.003-0.005-0.011-0.012-0.02-0.019l0.032-0.155c0,0,0.214-0.237,0.39-0.446
	c0.176-0.21,0.234,0.209,0.418,0.362c0.18,0.149,0.119,0.385,0.119,0.385s0.119,0.063,0.269,0.063c0.152,0,0.21,0.118,0.21,0.118
	l0.301,0.118l0.299-0.331c0,0,0.058-0.209,0.269-0.209c0.208,0,0.032,0.269,0.032,0.422c0,0.149,0.15,0,0.566-0.181
	c0.417-0.176,0.234-0.149,0.625-0.36c0.391-0.209,0.182-0.149,0.328-0.269c0.154-0.118,0.271-0.238,0.271-0.238l0.327,0.213
	l0.361-0.063l0.361-0.21v0.272c0,0-0.238,0.301-0.092,0.505c0.151,0.212,0.178,0.149,0.092,0.42c-0.092,0.271-0.032,0.271,0,0.423
	c0.023,0.11,0.03,0.124,0.031,0.19c1.359-4.459,0.946-9.445-1.561-13.799c-1.199-2.09-2.769-3.832-4.578-5.198
	c0.054-0.669,0.094-1.331,0.122-1.991c2.358,1.576,4.406,3.709,5.921,6.342c1.738,3.017,2.557,6.31,2.551,9.562
	c0-0.087,0.002-0.172,0.002-0.262C124.083,52.418,126.972,55.11,126.44,57.104z M103.595,36.32c0,0,0.188-0.106,0.281-0.148
	c0.099-0.04,0-0.051-0.093-0.118c-0.093-0.067-0.215,0.052-0.215,0.052s-0.054,0.054-0.106,0.172
	c-0.004,0.012-0.009,0.021-0.014,0.028c-0.051,0.063-0.107-0.101-0.12-0.186c-0.015-0.096-0.361-0.03-0.349-0.03
	c0.014,0,0.08,0.174,0.08,0.174s0.029,0.164,0.029,0.229c0,0.069,0,0.187,0.053,0.269c0.053,0.081,0.199,0.203,0.199,0.203
	l0.107-0.069l0.039-0.027l0.162-0.269l0.134-0.12L103.595,36.32z M101.45,35.13c0,0,0.022-0.19,0.127-0.166
	c0.105,0.019,0.21-0.253,0.21-0.253s-0.085-0.168-0.188-0.168c-0.105,0-0.336,0.022-0.336,0.022l-0.064-0.128
	c0,0-0.126-0.021-0.295,0.042c-0.169,0.064-0.212-0.084-0.212-0.084l-0.021-0.253l-0.233,0.063l-0.167-0.148
	c0,0-0.063-0.126,0.041-0.126s0.25,0.022,0.25,0.022l0.213-0.148l-0.084-0.167l0.145-0.167c0,0-0.293-0.151-0.357-0.04
	c-0.063,0.102-0.295,0.188-0.295,0.188s0.021-0.064-0.104-0.234c-0.124-0.169,0.063-0.253-0.212-0.19
	c-0.162,0.037-0.292,0.119-0.369,0.178c-0.06,0.042-0.094,0.075-0.094,0.075s-0.295,0.063-0.313,0.168
	c-0.023,0.103,0.357,0.168,0.357,0.168s0.021-0.029,0.049-0.056c0.055-0.06,0.156-0.144,0.227-0.07
	c0.104,0.104,0.188,0.233,0.188,0.233l-0.399,0.209l-0.015-0.014L99.3,33.931h-0.398l-0.188,0.084l-0.38,0.042
	c0,0,0.064,0.188,0.064,0.295c0,0.108-0.168,0.213-0.168,0.213l-0.225-0.021l-0.029-0.002l-0.232,0.168c0,0-0.252,0.021-0.357,0.102
	c-0.018,0.017-0.035,0.026-0.055,0.029c-0.097,0.025-0.197-0.04-0.197,0.099c0,0.168,0.02,0.253-0.104,0.275
	c-0.029,0.007-0.063,0.013-0.1,0.02c-0.133,0.029-0.299,0.066-0.299,0.066s-0.129,0.063-0.233,0.168
	c-0.103,0.102-0.337,0.167-0.337,0.167l-0.033-0.009l-0.387-0.078l-0.546,0.234l-0.016,0.034l-0.111,0.263l-0.358,0.042
	c0,0-0.297,0.147-0.315,0.251c-0.011,0.053-0.067,0.102-0.117,0.138c-0.047,0.033-0.093,0.053-0.093,0.053s-0.211,0.084-0.316,0.166
	c-0.104,0.083-0.232,0.25-0.232,0.25l-0.086,0.191l0.149,0.213l-0.337,0.04l0.04,0.167c0.168,0.168,0.274,0.252,0.379,0.168
	c0.103-0.087,0.041-0.151,0.165-0.191c0.075-0.027,0.209-0.071,0.324-0.113c0.084-0.031,0.161-0.058,0.203-0.078
	c0.104-0.04,0.273-0.188,0.398-0.188c0.128,0,0.252-0.021,0.252-0.021l0.05-0.04l0.286-0.233l0.338,0.15l0.273-0.042
	c0,0,0,0.069,0.05,0.122c0.02,0.019,0.044,0.033,0.079,0.044c0.123,0.042,0.313,0.042,0.313,0.042s0.104-0.148,0.253-0.148h0.26
	h0.115l0.043-0.189l0.238,0.111l0.033,0.016l0.189,0.147c0,0-0.084,0.022,0.127,0.106c0.128,0.05,0.247,0.034,0.322,0.01
	c0.046-0.015,0.078-0.032,0.078-0.032l0.359,0.084c0,0,0.022-0.337-0.086-0.337c-0.107,0-0.313-0.104-0.313-0.104l0.231-0.084
	l0.252-0.042l0.064,0.276l0.398-0.128l-0.063-0.232l0.021-0.36l0.377,0.063l0.023,0.252c0,0,0.072,0.034,0.154,0.051
	c0.089,0.024,0.182,0.028,0.182-0.051c0-0.148-0.084-0.252,0.021-0.252c0.104,0,0.316-0.063,0.316-0.063l0.103-0.15l0.148-0.338
	l0.166,0.254l0.233-0.149l-0.043-0.213l0.504-0.233c0,0,0.297-0.042,0.425-0.042c0.124,0,0.165-0.038,0.165-0.038
	s0.084-0.17-0.041-0.17C101.552,35.233,101.45,35.13,101.45,35.13z M96.422,43.296l-0.21,0.102l0.484,0.234l0.238,0.012l0.178,0.011
	c0,0,0.128-0.213,0.15-0.422c0.01-0.1,0.033-0.141,0.072-0.171c0.043-0.033,0.107-0.056,0.201-0.125
	c0.166-0.125,0.127-0.168,0.086-0.294c-0.034-0.096-0.2-0.084-0.287-0.072c-0.032,0.003-0.052,0.006-0.052,0.006l-0.349,0.174
	l-0.031,0.017l-0.167-0.212l-0.233,0.063l-0.23,0.234c-0.023-0.022,0.149,0.022,0.149,0.022s0.061-0.022,0.231,0
	c0.167,0.022-0.041,0.167-0.041,0.167l-0.337,0.085L96.422,43.296z M97.223,38.36l-0.288,0.019h-0.008c0,0-0.057,0.3,0.008,0.479
	c0.003,0.011,0.008,0.021,0.012,0.032c0.061,0.12,0.185,0.24,0.389,0.269c0.081,0.013,0.174,0.009,0.287-0.017
	c0.187-0.04,0.244-0.052,0.255-0.052l-0.026,0.01c0,0,0.037-0.01,0.026-0.01l0.13-0.05l0.164-0.066c0,0,0.271-0.166,0.271-0.315
	c0-0.15-0.232-0.104-0.421-0.104h-0.014c-0.173-0.001-0.158-0.027-0.238-0.233c-0.085-0.214-0.085,0.125-0.085,0.125
	s-0.084-0.02-0.166-0.21c-0.085-0.19-0.104-0.337-0.104-0.337l-0.075,0.039l-0.237,0.128l0.063,0.126L97.223,38.36z M97.011,44.412
	c0,0,0.085,0.104,0.212,0.277c0.053,0.072,0.088,0.048,0.112,0c0.033-0.065,0.057-0.169,0.115-0.169
	c0.104,0,0.023,0.169,0.149,0.148c0.126-0.021,0.399-0.022,0.399-0.022l0.008,0.009l0.181,0.203c0,0,0.212-0.104,0.231-0.212
	c0.022-0.104,0.022-0.104,0.189-0.104c0.168,0,0.105-0.022,0.316-0.191c0.211-0.166-0.063-0.313-0.232-0.4
	c-0.169-0.084-0.023-0.232-0.023-0.232l0.023-0.297c0,0,0-0.104-0.023-0.254c-0.021-0.146-0.063-0.252-0.084-0.4
	c-0.021-0.146-0.168-0.103-0.168-0.103v-0.191c0,0,0.315,0,0.422-0.042c0.104-0.041,0-0.253,0-0.253s-0.25-0.102-0.439-0.166
	c-0.19-0.062-0.064-0.104,0.251-0.126c0.313-0.021,0.042-0.168,0.042-0.168l-0.252-0.147c0,0-0.127,0.167-0.337,0.253
	c-0.046,0.018-0.077,0.037-0.099,0.059c-0.075,0.072-0.025,0.161-0.092,0.258v0.166l0.092,0.157l0.056,0.097
	c0,0-0.02,0.088-0.056,0.179c-0.02,0.047-0.04,0.096-0.07,0.137c-0.085,0.126,0.041,0.276,0.041,0.276s0,0.273-0.041,0.423
	c-0.041,0.147-0.361-0.128-0.361-0.128l-0.062,0.36h-0.179H97.22L97.262,44l0.071,0.055l0.116,0.092l0.124,0.191l-0.24-0.088
	L97.22,44.21L97.011,44.412z M93.71,34.899l-0.359,0.38c0,0,0.314,0.063,0.422,0.04c0.062-0.012,0.232-0.125,0.408-0.246
	c0.127-0.088,0.256-0.174,0.351-0.237c0.233-0.149,0.315-0.104,0.315-0.104l0.086,0.167l-0.506,0.297l0.59-0.085l0.07-0.065
	l0.227-0.209l0.232-0.275l0.357,0.022l0.135-0.049l0.306-0.117c0,0,0.253-0.166,0.36-0.359c0.082-0.148,0.138-0.063,0.238-0.041
	c0.03,0.009,0.059,0.009,0.099-0.001c0.166-0.04,0.085-0.19,0.085-0.337c0-0.072,0.098-0.079,0.22-0.077
	c0.121,0.003,0.263,0.014,0.329-0.03c0.124-0.087-0.105-0.252-0.274-0.297l-0.055-0.013c-0.133-0.032-0.201-0.046-0.22-0.176
	c-0.014-0.077-0.092-0.101-0.181-0.097c-0.085,0.004-0.177,0.033-0.239,0.075c-0.125,0.086-0.377,0.104-0.295-0.063
	c0.012-0.027,0.033-0.035,0.044-0.053c-0.651,0.138-1.304,0.314-1.95,0.53c0.146-0.003,0.209,0.007,0.305,0.007
	c0.126,0-0.127,0.149-0.127,0.149s-0.377,0.128-0.484,0.212l-0.013,0.012c-0.091,0.086-0.05,0.222-0.05,0.222s0.021,0,0.05,0
	c0.068-0.001,0.19-0.006,0.265-0.022c0.104-0.024,0.189-0.063,0.461-0.233c0.09-0.053,0.141-0.083,0.176-0.099
	c0.08-0.034,0.083-0.015,0.182-0.071c0.146-0.088,0.04,0.231,0.04,0.231l0.399-0.148l0.323-0.014l0.118-0.007l0.126-0.234
	l-0.244-0.052l-0.134-0.033l0.127-0.126h0.007c0.059,0,0.424,0.002,0.539,0.024c0.128,0.019,0,0.167,0,0.167l-0.04,0.166
	l-0.146,0.275c0,0-0.19,0.022-0.337,0.022h-0.016c-0.144,0.009-0.3,0.168-0.3,0.168l-0.295,0.209h-0.354h-0.07l-0.063,0.233
	l-0.337-0.04c0,0-0.039-0.106-0.062-0.253c-0.022-0.15-0.168,0-0.168,0s-0.06,0.25-0.202,0.358
	c-0.027,0.021-0.057,0.035-0.093,0.042C93.879,34.687,93.71,34.899,93.71,34.899z M98.294,32.666
	c-0.182,0.018-0.361,0.034-0.54,0.057c0.022,0.005,0.04,0.014,0.099,0.025c0.125,0.021,0.021,0.062,0.021,0.166
	c0,0.069,0.03,0.096,0.134,0.116c0.053,0.009,0.124,0.019,0.227,0.033c0.296,0.041,0.103-0.087,0.063-0.337
	C98.294,32.703,98.29,32.681,98.294,32.666z M97.159,32.913c0,0,0.021-0.043,0.04-0.107c-0.032,0.006-0.061,0.009-0.091,0.014
	C97.151,32.858,97.159,32.913,97.159,32.913z M99.569,32.582c-0.022,0.05-0.039,0.103-0.033,0.166c0.022,0.188,0.064,0,0.189-0.042
	c0.077-0.027,0.095-0.056,0.109-0.125C99.751,32.579,99.662,32.582,99.569,32.582z M87.237,38.171l0.266,0.018l0.336-0.211
	l0.336,0.102l-0.189,0.088c0,0-0.186,0.272-0.23,0.4c-0.044,0.125,0.504,0.103,0.504,0.103s0.146-0.4,0.146-0.568
	c0-0.166,0.441-0.275,0.441-0.275l0.125-0.337l0.213,0.15c0,0,0.123-0.234,0.104-0.337c-0.024-0.106-0.4-0.128-0.4-0.128
	l0.376-0.188l0.38,0.104l-0.086,0.737h0.377l0.086,0.128c0,0-0.525,0.294-0.633,0.294c-0.102,0-0.336,0.277-0.336,0.277
	l-0.209,0.234c0,0,0.084,0.125,0.25,0.168c0.166,0.04,0.166,0.147,0.166,0.147s0.232-0.084,0.232-0.211s-0.084-0.167-0.084-0.167
	s0.188-0.213,0.314-0.36c0.124-0.148,0.798-0.443,0.926-0.592c0.123-0.146,0.039-0.25,0.039-0.25l0.316-0.191
	c0,0,0.084-0.4,0.125-0.504s0.484-0.317,0.8-0.549c0.316-0.234,0.358-0.252,0.776-0.359c0.424-0.106,0.128-0.151,0.105-0.277
	c-0.021-0.126-0.358,0.17-0.358,0.17l-0.504-0.15c0,0,0.21,0,0.421-0.166c0.213-0.167,0.167-0.042,0.314-0.104
	c0.149-0.063,0.105-0.128,0.105-0.128h0.23c0,0,0.191-0.188,0.297-0.358c0.104-0.167,0.337-0.486,0.337-0.486
	s-0.524,0.298-0.632,0.338c-0.102,0.04-0.272-0.04-0.398-0.04c-0.128,0-0.314,0.209-0.527,0.293
	c-0.21,0.087-0.441,0.213-0.441,0.213l-0.313-0.063l-0.252,0.102l-0.611,0.253c0,0,0.104-0.083,0.36-0.232
	c0.253-0.15,0.503-0.297,0.503-0.297l0.4-0.102l0.033-0.208c-0.16,0.087-0.32,0.167-0.482,0.259
	C89.755,35.812,88.395,36.915,87.237,38.171z M103.073,55.34c0.424-1.352,0.832-2.749,1.215-4.188
	c3.408-12.741,3.801-23.708,0.885-24.491c-1.258-0.338-2.924,1.273-4.688,4.231c-0.021,0-0.036,0-0.056,0
	c1.976,0.046,3.933,0.399,5.794,1.043c0.033,0.61,0.037,1.173,0.035,1.627c0.002,0,0.002,0,0.002,0
	c-0.002,0.368-0.007,0.662-0.013,0.833c-0.058,1.601-0.202,3.24-0.413,4.892c-0.08-0.027-0.166-0.047-0.246-0.053
	c-0.227-0.016-0.232-0.003-0.229,0c-0.004-0.003-0.19-0.16-0.26-0.28c-0.071-0.12-0.208-0.21-0.47-0.297
	c-0.262-0.09-0.243,0.104-0.243,0.104s-0.243,0.173-0.558,0.141c-0.301-0.035-0.376,0.302-0.38,0.328h-0.002l-0.227,0.194
	c0,0-0.121,0.209-0.261,0.209c-0.141,0-0.243,0.034-0.243,0.034s-0.068,0.261-0.068,0.4c0,0.141-0.141,0.16-0.141,0.16
	s-0.174,0.034-0.296,0.087c-0.122,0.051-0.243,0.123-0.366,0.191c-0.121,0.069-0.07,0.122-0.313,0.263
	c-0.243,0.137-0.33,0.19-0.33,0.19l-0.33,0.069l0.171,0.174l-0.26,0.053c0,0-0.02,0.156,0.016,0.278
	c0.033,0.122,0.301,0.14,0.301,0.14s-0.175,0.14-0.385,0.229c-0.21,0.088-0.21,0.121-0.191,0.209
	c0.017,0.088,0.139,0.279,0.485,0.366c0.353,0.088,0.104-0.017,0.261-0.103c0.16-0.089,0.33-0.14,0.33-0.14s0.213,0.351,0.213,0.505
	c0,0.156-0.053,0.453-0.034,0.56c0.018,0.104,0.19-0.035,0.19-0.035l-0.156,0.173c0,0,0.033,0.313,0.033,0.403
	c0,0.088,0.311,0.034,0.311-0.053c0-0.085,0.171-0.229,0.433-0.243c0.261-0.018,0.228-0.051,0.228-0.261
	c0-0.209,0.051-0.489,0.051-0.489l0.298-0.089c0,0,0.17-0.128,0.282-0.233c0.029-0.028,0.051-0.056,0.068-0.08
	c0.036-0.056-0.006-0.112-0.068-0.166c-0.053-0.044-0.119-0.09-0.16-0.128c-0.089-0.087-0.122-0.366-0.122-0.542
	c0-0.174,0-0.104,0.021-0.228c0.016-0.111,0.146-0.12,0.262-0.147c0.011-0.003,0.021-0.006,0.033-0.01
	c0.121-0.035,0.277-0.243,0.503-0.35c0.226-0.108-0.122-0.122-0.122-0.122s0.036-0.191,0.07-0.351
	c0.034-0.157,0.486,0.053,0.486,0.053l0.174,0.208l-0.208,0.158l-0.24,0.364l-0.347,0.454l0.278,0.73c0,0,0.241,0.122,0.398,0.103
	c0.162-0.016,0.334-0.103,0.435-0.19c0.046-0.035,0.267-0.098,0.51-0.15l-0.081,0.487c-0.079,0.033-0.168-0.033-0.366-0.033
	c-0.272,0-0.344,0.125-0.59,0.148c-0.248,0.027-0.1,0.199-0.1,0.322s0.346,0.272,0.346,0.272l-0.271,0.172
	c0,0-0.125-0.271-0.367-0.246c-0.243,0.026-0.148,0.345-0.299,0.469c-0.147,0.124,0.1,0.498,0.1,0.498s-0.178,0.021-0.34,0.112
	c-0.02,0.013-0.038,0.022-0.057,0.034c-0.172,0.121-0.221,0.025-0.221,0.025s-0.1-0.149-0.222-0.149
	c-0.124,0-0.301,0.197-0.424,0.245c-0.124,0.049-0.542,0-0.542,0l-0.273-0.298l-0.225,0.226c0,0-0.197-0.049-0.321-0.2
	c-0.118-0.149,0-0.121-0.025-0.247c-0.022-0.122-0.073-0.122-0.073-0.122l0.123-0.197l0.321-0.199c0,0,0.073-0.443-0.075-0.64
	c-0.149-0.199-0.149,0.197-0.149,0.197l-0.493,0.32l0.025,0.669l-0.101,0.295l-0.191-0.046l-0.124,0.148
	c0,0-0.124-0.074-0.318-0.148c-0.199-0.075-0.544,0.246-0.544,0.246l-0.044,0.11l-0.079,0.185l-0.271-0.05l-0.147,0.174
	c0,0-0.172,0-0.299,0c-0.126,0-0.049,0.222-0.049,0.222s-0.085,0.099-0.181,0.136l-0.043-0.057c-0.145-0.019-0.181,0-0.269,0.072
	c-0.04,0.034-0.1,0.052-0.158,0.068c-0.069,0.016-0.131,0.023-0.131,0.023l-0.126-0.324c0,0-0.089-0.165-0.177-0.035
	c-0.091,0.128-0.056,0.216-0.056,0.216l0.036,0.219l-0.18,0.018l-0.035-0.011l-0.09-0.026l-0.311-0.188l-0.047-0.027
	c0,0-0.215-0.037-0.177,0.105c0.034,0.144,0.216,0.324,0.216,0.415c0,0.012,0.005,0.018,0.012,0.023
	c0.053,0.063,0.312,0.044,0.312,0.159c0,0.126-0.164,0.27-0.164,0.27s0.126,0.106,0.126,0.271c0,0.162-0.037,0.395-0.073,0.5
	c-0.035,0.107-0.124,0.072-0.161,0.182c-0.01,0.027-0.027,0.056-0.043,0.087c-0.057,0.093-0.135,0.182-0.135,0.182
	s-0.27,0.072-0.361,0.035c-0.093-0.035-0.164-0.165-0.324-0.197c-0.037-0.009-0.065-0.009-0.088-0.006
	c-0.063,0.008-0.073,0.042-0.232-0.067c-0.219-0.145-0.287-0.199-0.433-0.251c-0.144-0.051-0.215-0.179-0.215-0.179
	s-0.029-0.018-0.065-0.036c-0.066-0.038-0.166-0.088-0.223-0.088c-0.091,0-0.232,0.163-0.232,0.163s0.033,0.144,0,0.324
	c-0.033,0.179,0.033,0.271-0.072,0.342s-0.125,0.017-0.143,0.163c-0.02,0.144,0.071,0.072-0.072,0.215
	c-0.129,0.131-0.07,0.128-0.162,0.194c-0.012,0.006-0.024,0.017-0.035,0.024c-0.146,0.091-0.198,0.071-0.289,0.217
	c-0.092,0.145-0.125,0.302-0.125,0.432c0,0.125,0.393,0.574,0.393,0.574s0.027,0.007,0.057,0.017
	c0.063,0.02,0.162,0.063,0.162,0.146c0,0.128-0.146,0.182,0,0.273c0.144,0.09,0.072,0.105,0.16,0.162
	c0.044,0.026,0.314,0.085,0.582,0.142c0.293,0.057,0.586,0.11,0.586,0.11l0.197-0.144h0.164h0.178l0.088-0.307l0.271-0.017
	l0.019-0.292c0,0-0.035-0.288,0.053-0.288c0.043,0,0.176-0.075,0.301-0.15c0.125-0.077,0.238-0.157,0.238-0.157
	s0.069,0.015,0.162,0.028c0.137,0.021,0.322,0.035,0.377-0.01c0.092-0.072,0.289-0.361,0.289-0.361s-0.041-0.23,0.006-0.329
	c0.014-0.032,0.033-0.047,0.064-0.047c0.144,0,0.487,0.019,0.594,0.126c0.107,0.105,0.375,0.25,0.484,0.232
	c0.095-0.017,0.242-0.112,0.35-0.187l0.045-0.032c0.038-0.028,0.146-0.103,0.262-0.19c0.005,0.009,0.008,0.013,0.008,0.013
	s0.25,0.034,0.322,0.164c0.072,0.124,0.107,0.359,0.072,0.502c-0.035,0.141,0.232,0.269,0.322,0.376
	c0.09,0.106,0.523,0.684,0.665,0.863c0.144,0.177,0.432,0.502,0.432,0.502l0.144,0.345l-0.303,0.216c0,0-0.324-0.019-0.434-0.055
	c-0.106-0.036-0.195,0.071-0.195,0.071s-0.074-0.035-0.234-0.178c-0.162-0.145-0.052,0.019-0.251,0.127
	c-0.196,0.106,0.251,0.269,0.362,0.359c0.104,0.094,0.248,0.249,0.318,0.345c0.072,0.089,0.253-0.032,0.253-0.18
	c0-0.146,0.019-0.27,0.019-0.27h0.321l0.199-0.233l0.165-0.143l0.072-0.2l-0.127-0.36c0,0,0.221-0.071,0.301-0.071
	c0.094,0,0.182,0.27,0.182,0.27l0.093,0.036c0,0,0-0.216-0.055-0.306c-0.053-0.092-0.341-0.305-0.341-0.305
	s-0.322-0.125-0.418-0.197c-0.088-0.072-0.299-0.449-0.411-0.646c-0.105-0.198-0.032-0.219-0.053-0.306
	c-0.019-0.09-0.2-0.198-0.271-0.321c-0.072-0.128-0.051-0.306-0.051-0.306s0.162-0.108,0.342-0.216
	c0.063-0.038,0.095-0.065,0.098-0.081c0.072,0.074,0.259,0.29,0.259,0.421c0,0.164,0.071,0.343,0.107,0.45
	c0.036,0.105,0.251,0.197,0.539,0.251c0.288,0.053,0.196,0.251,0.196,0.251s0.27,0.324,0.304,0.541
	c0.033,0.216,0.033,0.324,0.054,0.593c0.018,0.27,0.146,0.303,0.231,0.562c0.091,0.249,0.123,0.249,0.179,0.445
	c0.025,0.092,0.043,0.183,0.075,0.272c-0.177,0.66-0.366,1.325-0.565,1.993c-0.166,0.157-0.288,0.727-0.288,0.727
	s-0.055,0.033-0.132,0.052h0.001l-0.374-0.09l0,0c-0.188-0.204-0.625-0.285-0.854-0.435c-0.235-0.16-0.235-0.5-0.421-0.658
	c-0.184-0.16-0.314-0.078-0.314-0.078s-0.522-0.106-0.63-0.237c-0.056-0.07-0.15-0.177-0.225-0.261
	c-0.066-0.076-0.119-0.131-0.119-0.131s0.051-0.05,0.119-0.104c0.078-0.066,0.176-0.144,0.248-0.159
	c0.131-0.028-0.052-0.292-0.21-0.555c-0.158-0.262,0.42-0.342,0.393-0.473c-0.027-0.128-0.276-0.132-0.433-0.205l-0.014-0.004
	c-0.158-0.082-0.521,0-0.521,0l-0.5-0.104c0,0-0.158,0.05-0.289,0.104c-0.046,0.019-0.106,0.009-0.169-0.022
	c-0.114-0.047-0.234-0.164-0.3-0.3c-0.072-0.144-0.221-0.113-0.369-0.124c-0.069-0.007-0.143-0.019-0.207-0.059
	c-0.072-0.043-0.135-0.06-0.193-0.056c-0.115,0.003-0.222,0.065-0.358,0.085c-0.171,0.021-0.399,0.078-0.55,0.097
	c-0.031,0.007-0.059,0.011-0.08,0.011c-0.131,0-0.291,0.102-0.473,0.209c-0.184,0.104-0.234-0.29-0.234-0.29s-0.057,0-0.16-0.019
	c-0.104-0.021-0.27-0.058-0.472-0.139c-0.393-0.161-0.211-0.396-0.211-0.396s-0.071,0.06-0.222,0.19
	c-0.049,0.042-0.104,0.095-0.169,0.152c-0.263,0.233-0.342,0.341-0.577,0.315c-0.233-0.028-0.366,0.078-0.523,0.158
	c-0.146,0.073-0.467,0.633-0.514,0.724c-3.126-1.077-6.216-2.341-9.008-3.825c-0.121-0.066-0.318-0.173-0.561-0.31c0,0,0,0,0,0.001
	c-0.414-0.234-0.965-0.563-1.553-0.94c0.376-1.947,1.053-3.828,2.008-5.573c-0.015,0.023-0.028,0.044-0.036,0.069
	c-3.436,0.049-5.663,0.695-5.999,1.953c-0.779,2.927,8.89,8.066,21.597,11.484C100.279,54.688,101.692,55.032,103.073,55.34z
	 M99.21,49.956c-0.087,0.034-0.087,0.23-0.087,0.23s0.07,0.087,0.159,0.104c0.058,0.013,0.125,0.006,0.219-0.015
	c0.041-0.009,0.094-0.021,0.152-0.038c0.172-0.051,0.068-0.141,0.104-0.262c0.033-0.123,0.033-0.284,0.104-0.406
	s-0.143-0.212-0.143-0.212s-0.162,0.23-0.221,0.322l-0.007,0.012C99.438,49.776,99.3,49.92,99.21,49.956z M99.499,49.014
	c0.095-0.019,0.302-0.076,0.346-0.185c0.051-0.141,0.034-0.069,0.089-0.229c0.054-0.16-0.142,0.053-0.142,0.053l-0.23,0.141
	l-0.063,0.136l-0.041,0.093C99.458,49.022,99.472,49.022,99.499,49.014z"/>
<g>
	<g>
		<path fill="#262626" d="M226.573,35.813c-1.453-1.057-3.318-2.101-4.717-1.788l2.904-7.218c0.396-0.978-0.582-1.955-1.561-1.56
			l-7.225,2.898c0.313-1.398-0.732-3.264-1.788-4.715c-0.618-0.847-1.956-0.552-2.147,0.479c-0.553,2.97-1.933,6.311-2.635,7.89
			c0.773,0.498,1.5,1.085,2.172,1.752l4.873,4.871c0.672,0.672,1.254,1.392,1.758,2.172c1.572-0.702,4.914-2.082,7.885-2.634
			C227.125,37.769,227.425,36.43,226.573,35.813z M209.951,35.177c-2.124-2.124-4.86-3.144-7.573-3.144
			c-3.702,0-7.362,1.901-9.373,5.478l-5.352,9.509l5.809,9.575l-8.348-5.064l-11.773,20.943c-1.236,2.203,0.51,4.59,2.658,4.59
			c0.492,0,1.009-0.125,1.519-0.408l9.151-5.141l-3.072-5.699l6.744,3.635l18.807-10.564l-5.16-9.011l10.278,5.886
			c4.597-3.973,5.059-11.207,0.558-15.712L209.951,35.177z"/>
	</g>
</g>
<g>
	<g>
		<path fill="#70BFFF" d="M-6.313,136.861c0.351,1.116,0.803,2.231,1.418,3.258c0.587,1.032,1.297,1.988,2.02,2.809
			c0.655,0.726,2.132,2.407,2.669,2.834c0.136-0.955,0.253-1.931,0.275-2.922c0.057-0.698,0.01-1.392-0.003-2.075
			c-0.012-0.688-0.135-1.351-0.193-2.002c-0.116-0.641-0.274-1.254-0.399-1.839c-0.207-0.565-0.399-1.097-0.577-1.589
			c-0.25-0.46-0.48-0.885-0.683-1.26c-0.178-0.396-0.47-0.646-0.643-0.898c-0.385-0.484-0.605-0.761-0.605-0.761
			s0.241,0.259,0.658,0.714c0.194,0.241,0.51,0.477,0.718,0.86c0.234,0.364,0.499,0.778,0.787,1.229
			c0.22,0.49,0.457,1.021,0.71,1.583c0.174,0.586,0.38,1.206,0.547,1.858c0.11,0.659,0.287,1.341,0.352,2.043
			c0.063,0.703,0.164,1.417,0.16,2.135c0.029,0.814,0.018,1.622-0.021,2.415c0.063-0.069,0.14-0.126,0.2-0.203
			c0.605-0.679,1.221-1.656,1.719-2.818c0.48-1.163,0.805-2.508,0.877-3.919c0.104-1.415-0.092-2.889-0.514-4.32
			c-0.436-1.426-1.109-2.816-2.053-4.004c-0.916-1.198-2.077-2.206-3.293-2.867c-1.22-0.661-2.48-0.948-3.363-0.919
			c-0.43-0.016-0.809,0.104-1.031,0.164c-0.225,0.075-0.345,0.114-0.345,0.114s0.028,0.121,0.074,0.349
			c0.047,0.216,0.053,0.584,0.087,0.924c0.032,0.75-0.042,1.655-0.134,2.644C-7.062,132.343-7.02,134.618-6.313,136.861z
			 M5.175,144.019c0.39-0.369,0.828-0.666,1.22-0.99c0.418-0.288,0.848-0.536,1.236-0.786c0.426-0.194,0.823-0.377,1.191-0.548
			c0.392-0.112,0.748-0.218,1.064-0.31c0.309-0.114,0.605-0.093,0.836-0.134c0.465-0.05,0.73-0.078,0.73-0.078
			s-0.264,0.048-0.725,0.131c-0.226,0.058-0.515,0.056-0.812,0.191c-0.306,0.111-0.646,0.24-1.019,0.378
			c-0.346,0.19-0.723,0.397-1.119,0.619c-0.366,0.271-0.76,0.542-1.143,0.85c-0.361,0.341-0.762,0.657-1.109,1.044
			c-0.348,0.382-0.723,0.754-1.037,1.18c-0.48,0.578-0.899,1.193-1.299,1.805c0.519,0.024,2.197-0.198,2.933-0.286
			c0.819-0.107,1.7-0.298,2.554-0.593c0.857-0.278,1.676-0.688,2.43-1.146c1.521-0.928,2.678-2.203,3.555-3.393
			c0.439-0.609,0.85-1.162,1.24-1.572c0.188-0.176,0.375-0.385,0.51-0.484c0.141-0.104,0.215-0.159,0.215-0.159
			s-0.048-0.086-0.139-0.24c-0.1-0.145-0.254-0.401-0.506-0.606c-0.489-0.456-1.351-0.921-2.375-1.151
			c-1.022-0.229-2.186-0.234-3.305-0.008c-1.13,0.208-2.205,0.664-3.162,1.26c-0.955,0.605-1.8,1.348-2.447,2.208
			c-0.658,0.84-1.145,1.765-1.449,2.668c-0.297,0.91-0.432,1.771-0.426,2.462c-0.004,0.071,0.01,0.144,0.014,0.215
			c0.375-0.471,0.77-0.937,1.191-1.387C4.374,144.745,4.79,144.387,5.175,144.019z M-17.055,140.707
			c0.392,0.411,0.798,0.963,1.239,1.57c0.876,1.191,2.033,2.467,3.555,3.395c0.755,0.459,1.568,0.868,2.432,1.146
			c0.85,0.297,1.731,0.487,2.549,0.594c0.736,0.087,2.416,0.311,2.933,0.283c-0.396-0.61-0.817-1.224-1.299-1.802
			c-0.315-0.425-0.688-0.795-1.035-1.181c-0.349-0.385-0.75-0.702-1.108-1.043c-0.385-0.309-0.781-0.58-1.146-0.851
			c-0.396-0.219-0.773-0.427-1.118-0.618c-0.373-0.138-0.715-0.265-1.017-0.377c-0.298-0.136-0.587-0.134-0.813-0.192
			c-0.461-0.084-0.723-0.13-0.723-0.13s0.265,0.028,0.731,0.078c0.231,0.042,0.526,0.02,0.836,0.133
			c0.315,0.091,0.672,0.196,1.061,0.311c0.371,0.169,0.77,0.354,1.195,0.547c0.391,0.246,0.817,0.499,1.237,0.787
			c0.391,0.323,0.83,0.621,1.217,0.991c0.384,0.368,0.798,0.725,1.154,1.135c0.422,0.449,0.817,0.916,1.192,1.387
			c-0.005,0.09,0,0.183-0.018,0.275c-0.04,0.154,0.257,0.797,0.406,1.036c0.107,0.176,0.196,0.343,0.297,0.517
			c-5.384,1.027-9.751,4.908-11.478,10.01l0.357,0.046c0.444,0.002,1.122,0.109,2.282,0.313c0.023-0.344,0.143-0.68,0.358-0.959
			c0.854-1.131,2.097-1.729,3.598-1.729c2.252,0.008,4.636,0.074,7.047,0.805c1.27,0.383,2.571,0.312,3.892-0.22
			c3.799-1.521,7.137-1.379,9.832,0.38c0.334,0.215,0.68,0.445,1.031,0.682c-1.918-4.889-6.305-8.534-11.624-9.403
			c0.146-0.253,0.282-0.507,0.444-0.77c0.147-0.238,0.445-0.883,0.406-1.034c-0.017-0.095-0.015-0.186-0.017-0.276
			c-0.542,0.681-1.028,1.365-1.457,2.018c-0.265-0.033-0.536-0.043-0.804-0.062c0.14-1.016,0.254-2.104,0.309-3.245
			c-0.085,0.088-0.158,0.181-0.257,0.261c-0.173,0.115-0.436,1.017-0.496,1.385c-0.093,0.536-0.197,1.044-0.306,1.541
			c-0.093-0.001-0.18-0.021-0.274-0.021c-0.774,0-1.535,0.063-2.279,0.177c-0.379-0.565-0.789-1.142-1.251-1.727
			c0.002-0.07,0.017-0.141,0.012-0.213c0.008-0.688-0.127-1.551-0.425-2.462c-0.305-0.901-0.79-1.827-1.452-2.667
			c-0.647-0.859-1.49-1.603-2.444-2.209c-0.96-0.594-2.034-1.05-3.164-1.258c-1.117-0.228-2.282-0.225-3.305,0.006
			c-1.023,0.231-1.888,0.696-2.376,1.152c-0.251,0.205-0.409,0.461-0.506,0.604c-0.09,0.155-0.139,0.239-0.139,0.239
			s0.074,0.056,0.214,0.162C-17.431,140.319-17.243,140.527-17.055,140.707z M19.88,165.804c-2.323-3.152-5.362-5.503-8.565-7.589
			c-2.599-1.69-5.561-1.331-8.316-0.228c-1.689,0.677-3.362,0.758-4.986,0.265c-2.167-0.653-4.344-0.726-6.555-0.731
			c-0.948-0.002-1.735,0.33-2.299,1.074c-0.315,0.414,2.266,2.143,4.479,2.143c-0.411,0.82-7.566-0.916-8.521-0.844l-5.413-0.694
			c-1.924-0.158-1.921-0.884-3.813,0.186c-0.064,0.037-0.159,0.037-0.236,0.033c-1.053-0.062-1.647,0.272-2.233,0.972
			c-0.338,0.401-0.31,0.896-0.13,1.365c0.19,0.489,0.674,0.362,1.069,0.52c2.421,0.959,3.202,1.428,6.485,2.238
			c2.334,0.576,4.61,1.28,6.941,1.809c0.964,0.219,1.944,0.381,2.813,0.871c1.846,1.039,3.81,1.354,5.92,1.258
			c2.395-0.107,4.795-0.012,7.196-0.027c4.211-0.019,7.41,1.668,9.577,5.377l13.548-0.027
			C23.887,170.312,22.581,169.474,19.88,165.804z"/>
	</g>
</g>
<g>
	<g>
		<path fill="#70BFFF" d="M-105.192,151.873c0.219,0.688,0.858,1.154,1.579,1.154h20.303c0.767,0,1.433-0.525,1.612-1.271
			l3.761-15.681c0.19-0.793,0.006-1.631-0.499-2.273c-0.505-0.64-1.276-1.015-2.093-1.015h-27.117c-0.851,0-1.65,0.407-2.152,1.093
			c-0.501,0.69-0.645,1.576-0.385,2.385L-105.192,151.873z M-79.077,155.98h-26.187c-0.929,0-1.745-0.594-2.029-1.476l-7.208-22.353
			c-0.68-2.112-2.628-3.531-4.846-3.531h-1.575c-1.341,0-2.427,1.088-2.427,2.428c0,1.343,1.086,2.43,2.427,2.43h1.575
			c0.104,0,0.194,0.065,0.226,0.164l7.208,22.352c0.935,2.898,3.607,4.844,6.65,4.844h26.187c1.341,0,2.427-1.086,2.427-2.428
			S-77.736,155.98-79.077,155.98z M-103.543,163.635c-2.138,0-3.871,1.734-3.871,3.873s1.732,3.871,3.871,3.871
			c2.137,0,3.871-1.732,3.871-3.871S-101.406,163.635-103.543,163.635z M-83.214,163.635c-2.137,0-3.871,1.734-3.871,3.873
			s1.733,3.871,3.871,3.871c2.138,0,3.871-1.732,3.871-3.871S-81.076,163.635-83.214,163.635z"/>
	</g>
</g>
<path fill="#70BFFF" d="M113.932,160.496c0.641,0.045,1.284,0.091,1.917,0.116c-1.572,2.366-3.697,4.419-6.322,5.938
	c-2.627,1.514-5.463,2.34-8.289,2.518c0.299-0.582,0.599-1.175,0.887-1.778c1.497-0.185,2.983-0.571,4.426-1.167
	c0.018-0.033,0.033-0.057,0.039-0.086c0.052-0.181,0.214-0.365,0.214-0.365l-0.085-0.211l0.186-0.264c0,0,0.209-0.341,0.34-0.443
	c0.131-0.104,1.229-1.053,1.468-1.232c0.207-0.164,1.118-0.849,1.518-1.173c0.055-0.044,0.099-0.086,0.136-0.112
	c0.262-0.236,0.764-0.869,0.942-1.159c0.089-0.133,0.226-0.471,0.354-0.793h-0.003C112.421,160.368,113.181,160.439,113.932,160.496
	z M95.319,161.788c-0.071-0.012,0.021,0.039,0.082,0.071C95.382,161.82,95.356,161.794,95.319,161.788z M109.606,160.447
	c0.19,0.023,0.439,0.006,0.627,0h0.056c0.185,0,0.341-0.079,0.63-0.237l0.021-0.012l0,0c-0.232-0.03-0.471-0.06-0.703-0.093
	c-0.231-0.034-0.465-0.063-0.699-0.1c0.166,0.128,0.277,0.233,0.23,0.253C109.634,160.314,109.397,160.421,109.606,160.447z
	 M95.403,161.859c0.001,0.002,0.002,0.003,0.002,0.007C95.473,161.896,95.445,161.883,95.403,161.859z M101.321,147.705
	c0,0,0.013,0.016,0.028,0.032C101.365,147.709,101.321,147.705,101.321,147.705z M107.644,151.883h-0.04l-0.036,0.15
	c-0.166,0.612-0.335,1.233-0.512,1.853c0.143,0.003,0.276,0.016,0.276,0.016s0.156-0.069,0.202-0.272
	c0.041-0.202,0.16-0.429,0.16-0.429s0.04,0.008,0.111,0.023c0.044-0.083,0.097-0.2,0.097-0.342c0-0.282-0.124-0.345-0.124-0.499
	c0-0.156,0.061-0.531,0.061-0.531L107.644,151.883z M106.809,154.719l-0.084,0.283l0.13-0.023c0,0,0.032,0.09,0.079,0.216
	c0.031-0.068,0.05-0.121,0.05-0.121s0-0.089-0.044-0.271C106.934,154.773,106.874,154.743,106.809,154.719z M108.448,148.702
	l-0.041-0.021c-0.092,0.377-0.178,0.754-0.274,1.127c0.065,0.041,0.019,0.054,0.284,0.064c0.377,0.02,0.115,0.02,0.396,0.02
	c0.282,0,0.327,0.033,0.377-0.086c0.048-0.115,0.065,0.066,0.065-0.246c0-0.315-0.148-0.443-0.246-0.527
	C108.909,148.953,108.744,148.834,108.448,148.702z M126.44,157.104c-0.844,3.155-10.02,3.533-21.66,1.202
	c-3.811,11.273-8.724,19.05-11.871,18.207c-1.984-0.534-2.867-4.392-2.668-10.094c0.068,0.036,0.137,0.077,0.203,0.112
	c-2.801-1.621-5.225-3.97-6.957-6.976c-1.514-2.634-2.334-5.477-2.515-8.313c0.554,0.29,1.114,0.566,1.687,0.844
	c2.039,0.978,4.178,1.872,6.348,2.671h-0.006l0.006,0.114l-0.313,0.555l-0.289,0.182l0.078,0.131l0.053,0.263h-0.16
	c0,0,0,0.365,0,0.578c0,0.21,0.422,0.288,0.422,0.288l-0.131,0.083c0,0,0.027,0.128,0.158,0.341
	c0.131,0.212,0.234,0.396,0.288,0.576c0.053,0.184,0.131,0.705,0.131,0.705s0.343,0.578,0.499,0.819
	c0.158,0.233,0.473,0.552,0.604,0.813c0.131,0.264,0.42,0.132,0.969,0.264c0.552,0.131,0.785,0.314,0.785,0.314
	s0.29,0.234,0.474,0.343c0.182,0.102,0.365,0.102,0.863,0.102c0.477,0,0.166,0.027,0.748,0.118l0.094,0.013
	c0.699,0.104,0.147,0.053,0.812,0.359l0.027,0.012c0.163,0.072,0.25,0.106,0.297,0.132c0.052,0.122,0.029,0.35,0.047,0.443
	c0.027,0.131,0.211-0.025,0.342-0.025c0.1,0,0.123,0.078,0.237,0.15c0.033,0.023,0.075,0.041,0.128,0.06
	c0.234,0.078,0.286-0.078,0.286-0.078l0.265,0.314l0.21,0.288l-0.21,0.502l-0.183,0.183c0,0,0.028-0.236,0-0.425
	c-0.028-0.182-0.184,0.084-0.184,0.084l-0.157,0.499l0.574,0.554l0.174,0.156l0.375,0.346l0.025,0.066l0.213,0.617l-0.028,0.209
	l0.131,0.346c0,0-0.166,0.072-0.315,0.104c-0.059,0.015-0.11,0.026-0.156,0.026c-0.077,0-0.168,0.09-0.244,0.183
	c-0.084,0.099-0.148,0.21-0.148,0.21s0.06,0.117,0.148,0.238c0.055,0.078,0.121,0.156,0.192,0.208c0.036,0.03,0.07,0.042,0.103,0.07
	c0.028,0.003,0.056,0.011,0.084,0.015c-0.006,0.014-0.013,0.022-0.02,0.032l0,0h0.004l-0.078,0.134l0,0
	c-0.229,0.395-0.514,0.88-0.844,1.395c-1.918-0.373-3.775-1.041-5.501-1.98c0.003,0,0.006,0.002,0.009,0.004
	c0.052,3.444,0.695,5.678,1.953,6.016c2.383,0.64,6.248-5.723,9.438-15.03c-1.342-0.299-2.703-0.637-4.086-1.012
	c-14.604-3.924-25.635-10.132-24.638-13.864c0.533-1.99,4.374-2.875,10.062-2.676c-0.065,0.112-0.128,0.23-0.189,0.341
	c1.619-2.864,3.993-5.351,7.041-7.112c3.035-1.761,6.354-2.577,9.626-2.559c-0.114-0.002-0.233-0.006-0.352-0.004
	c2.671-5.035,5.359-7.934,7.341-7.401c3.724,1.001,3.571,13.687-0.342,28.325c-0.365,1.388-0.761,2.741-1.164,4.056
	c9.635,1.886,17.058,1.712,17.706-0.68c0.337-1.261-1.272-2.934-4.222-4.699c0-0.009,0-0.017,0-0.022
	c-0.051,1.969-0.402,3.922-1.041,5.774c-0.609,0.033-1.169,0.034-1.622,0.034l0,0c-0.369,0-0.659-0.006-0.831-0.013
	c-0.494-0.019-0.99-0.04-1.49-0.077c0.087-0.309,0.166-0.535,0.18-0.661c0.025-0.161,0.115-0.407,0.115-0.407l-0.586-0.135
	l-0.068-0.385l-0.246-0.044l-0.229,0.433c0,0-0.178,0.271-0.383,0.38c-0.199,0.111-0.471,0.135-0.471,0.135l0.065-0.311
	c-0.108-0.047-0.337,0.042-0.337,0.042l-0.024-0.296c0,0-0.134-0.295-0.246-0.313c-0.112-0.025-0.294-0.271-0.294-0.271
	s-0.067-0.093-0.135-0.273c-0.003-0.005-0.011-0.012-0.02-0.019l0.032-0.155c0,0,0.214-0.237,0.39-0.446
	c0.176-0.21,0.234,0.209,0.418,0.362c0.18,0.149,0.119,0.385,0.119,0.385s0.119,0.063,0.269,0.063c0.152,0,0.21,0.118,0.21,0.118
	l0.301,0.118l0.299-0.331c0,0,0.058-0.209,0.269-0.209c0.208,0,0.032,0.269,0.032,0.422c0,0.149,0.15,0,0.566-0.181
	c0.417-0.176,0.234-0.149,0.625-0.36c0.391-0.209,0.182-0.149,0.328-0.269c0.154-0.118,0.271-0.238,0.271-0.238l0.327,0.213
	l0.361-0.063l0.361-0.21v0.272c0,0-0.238,0.301-0.092,0.505c0.151,0.212,0.178,0.149,0.092,0.42c-0.092,0.271-0.032,0.271,0,0.423
	c0.023,0.11,0.03,0.124,0.031,0.19c1.359-4.459,0.946-9.445-1.561-13.799c-1.199-2.091-2.769-3.832-4.578-5.198
	c0.054-0.668,0.094-1.33,0.122-1.99c2.358,1.576,4.406,3.709,5.921,6.342c1.738,3.018,2.557,6.311,2.551,9.563
	c0-0.088,0.002-0.173,0.002-0.263C124.083,152.418,126.972,155.11,126.44,157.104z M103.595,136.32c0,0,0.188-0.105,0.281-0.148
	c0.099-0.04,0-0.051-0.093-0.118s-0.215,0.052-0.215,0.052s-0.054,0.055-0.106,0.173c-0.004,0.013-0.009,0.021-0.014,0.028
	c-0.051,0.063-0.107-0.102-0.12-0.186c-0.015-0.096-0.361-0.031-0.349-0.031c0.014,0,0.08,0.175,0.08,0.175s0.029,0.163,0.029,0.229
	c0,0.069,0,0.187,0.053,0.269s0.199,0.203,0.199,0.203l0.107-0.068l0.039-0.027l0.162-0.27l0.134-0.119L103.595,136.32z
	 M101.45,135.13c0,0,0.022-0.19,0.127-0.165c0.105,0.018,0.21-0.254,0.21-0.254s-0.085-0.168-0.188-0.168
	c-0.105,0-0.336,0.023-0.336,0.023l-0.064-0.129c0,0-0.126-0.021-0.295,0.042s-0.212-0.085-0.212-0.085l-0.021-0.252l-0.233,0.063
	l-0.167-0.148c0,0-0.063-0.125,0.041-0.125s0.25,0.021,0.25,0.021l0.213-0.148l-0.084-0.166l0.145-0.168c0,0-0.293-0.15-0.357-0.04
	c-0.063,0.103-0.295,0.188-0.295,0.188s0.021-0.064-0.104-0.234c-0.124-0.169,0.063-0.252-0.212-0.189
	c-0.162,0.037-0.292,0.118-0.369,0.178c-0.06,0.041-0.094,0.074-0.094,0.074s-0.295,0.063-0.313,0.168
	c-0.023,0.104,0.357,0.168,0.357,0.168s0.021-0.029,0.049-0.056c0.055-0.06,0.156-0.144,0.227-0.069
	c0.104,0.104,0.188,0.232,0.188,0.232l-0.399,0.21l-0.015-0.014l-0.197-0.155h-0.398l-0.188,0.084l-0.38,0.041
	c0,0,0.064,0.188,0.064,0.296c0,0.108-0.168,0.214-0.168,0.214l-0.225-0.021l-0.029-0.002l-0.232,0.168c0,0-0.252,0.021-0.357,0.103
	c-0.018,0.017-0.035,0.026-0.055,0.028c-0.097,0.025-0.197-0.039-0.197,0.1c0,0.168,0.02,0.253-0.104,0.275
	c-0.029,0.006-0.063,0.013-0.1,0.02c-0.133,0.029-0.299,0.065-0.299,0.065s-0.129,0.063-0.233,0.168
	c-0.103,0.103-0.337,0.167-0.337,0.167l-0.033-0.009l-0.387-0.077l-0.546,0.234l-0.016,0.033l-0.111,0.264l-0.358,0.041
	c0,0-0.297,0.148-0.315,0.252c-0.011,0.053-0.067,0.102-0.117,0.138c-0.047,0.033-0.093,0.053-0.093,0.053s-0.211,0.085-0.316,0.166
	c-0.104,0.083-0.232,0.251-0.232,0.251l-0.086,0.19l0.149,0.214l-0.337,0.039l0.04,0.168c0.168,0.168,0.274,0.252,0.379,0.168
	c0.103-0.087,0.041-0.15,0.165-0.191c0.075-0.026,0.209-0.07,0.324-0.112c0.084-0.03,0.161-0.058,0.203-0.077
	c0.104-0.041,0.273-0.188,0.398-0.188c0.128,0,0.252-0.021,0.252-0.021l0.05-0.041l0.286-0.232l0.338,0.15l0.273-0.043
	c0,0,0,0.069,0.05,0.123c0.02,0.018,0.044,0.033,0.079,0.044c0.123,0.042,0.313,0.042,0.313,0.042s0.104-0.148,0.253-0.148h0.26
	h0.115l0.043-0.189l0.238,0.111l0.033,0.016l0.189,0.146c0,0-0.084,0.022,0.127,0.105c0.128,0.051,0.247,0.034,0.322,0.01
	c0.046-0.015,0.078-0.031,0.078-0.031l0.359,0.084c0,0,0.022-0.338-0.086-0.338c-0.107,0-0.313-0.104-0.313-0.104l0.231-0.084
	l0.252-0.043l0.064,0.275l0.398-0.127l-0.063-0.232l0.021-0.359l0.377,0.063l0.023,0.252c0,0,0.072,0.033,0.154,0.051
	c0.089,0.024,0.182,0.027,0.182-0.051c0-0.148-0.084-0.252,0.021-0.252c0.104,0,0.316-0.063,0.316-0.063l0.103-0.15l0.148-0.338
	l0.166,0.254l0.233-0.148l-0.043-0.213l0.504-0.233c0,0,0.297-0.042,0.425-0.042c0.124,0,0.165-0.037,0.165-0.037
	s0.084-0.17-0.041-0.17C101.552,135.233,101.45,135.13,101.45,135.13z M96.422,143.296l-0.21,0.103l0.484,0.233l0.238,0.012
	l0.178,0.011c0,0,0.128-0.213,0.15-0.422c0.01-0.1,0.033-0.141,0.072-0.172c0.043-0.033,0.107-0.057,0.201-0.125
	c0.166-0.125,0.127-0.168,0.086-0.295c-0.034-0.096-0.2-0.084-0.287-0.071c-0.032,0.003-0.052,0.007-0.052,0.007l-0.349,0.174
	l-0.031,0.017l-0.167-0.212l-0.233,0.063l-0.23,0.234c-0.023-0.022,0.149,0.021,0.149,0.021s0.061-0.021,0.231,0
	c0.167,0.023-0.041,0.168-0.041,0.168l-0.337,0.085L96.422,143.296z M97.223,138.359l-0.288,0.02h-0.008
	c0,0-0.057,0.301,0.008,0.479c0.003,0.012,0.008,0.021,0.012,0.031c0.061,0.12,0.185,0.24,0.389,0.27
	c0.081,0.013,0.174,0.01,0.287-0.017c0.187-0.04,0.244-0.052,0.255-0.052l-0.026,0.01c0,0,0.037-0.01,0.026-0.01l0.13-0.051
	l0.164-0.065c0,0,0.271-0.166,0.271-0.315c0-0.15-0.232-0.104-0.421-0.104h-0.014c-0.173-0.002-0.158-0.027-0.238-0.232
	c-0.085-0.215-0.085,0.124-0.085,0.124s-0.084-0.02-0.166-0.21c-0.085-0.19-0.104-0.338-0.104-0.338l-0.075,0.039l-0.237,0.128
	l0.063,0.126L97.223,138.359z M97.011,144.412c0,0,0.085,0.104,0.212,0.277c0.053,0.071,0.088,0.048,0.112,0
	c0.033-0.066,0.057-0.17,0.115-0.17c0.104,0,0.023,0.17,0.149,0.148s0.399-0.022,0.399-0.022l0.008,0.009l0.181,0.203
	c0,0,0.212-0.104,0.231-0.212c0.022-0.104,0.022-0.104,0.189-0.104c0.168,0,0.105-0.022,0.316-0.19
	c0.211-0.166-0.063-0.314-0.232-0.4c-0.169-0.084-0.023-0.232-0.023-0.232l0.023-0.297c0,0,0-0.104-0.023-0.254
	c-0.021-0.146-0.063-0.253-0.084-0.4c-0.021-0.146-0.168-0.104-0.168-0.104v-0.19c0,0,0.315,0,0.422-0.042
	c0.104-0.04,0-0.253,0-0.253s-0.25-0.103-0.439-0.166c-0.19-0.062-0.064-0.104,0.251-0.126c0.313-0.021,0.042-0.168,0.042-0.168
	l-0.252-0.146c0,0-0.127,0.167-0.337,0.252c-0.046,0.019-0.077,0.037-0.099,0.059c-0.075,0.072-0.025,0.161-0.092,0.258v0.166
	l0.092,0.158l0.056,0.097c0,0-0.02,0.088-0.056,0.179c-0.02,0.047-0.04,0.096-0.07,0.138c-0.085,0.126,0.041,0.276,0.041,0.276
	s0,0.273-0.041,0.423c-0.041,0.147-0.361-0.128-0.361-0.128l-0.062,0.359h-0.179H97.22L97.262,144l0.071,0.055l0.116,0.092
	l0.124,0.19l-0.24-0.088l-0.113-0.038L97.011,144.412z M93.71,134.898l-0.359,0.381c0,0,0.314,0.063,0.422,0.039
	c0.062-0.012,0.232-0.124,0.408-0.246c0.127-0.088,0.256-0.174,0.351-0.236c0.233-0.148,0.315-0.104,0.315-0.104l0.086,0.166
	l-0.506,0.298l0.59-0.085l0.07-0.066l0.227-0.209l0.232-0.275l0.357,0.022l0.135-0.05l0.306-0.117c0,0,0.253-0.166,0.36-0.359
	c0.082-0.148,0.138-0.063,0.238-0.04c0.03,0.009,0.059,0.009,0.099-0.001c0.166-0.04,0.085-0.19,0.085-0.338
	c0-0.072,0.098-0.078,0.22-0.076c0.121,0.003,0.263,0.014,0.329-0.031c0.124-0.086-0.105-0.252-0.274-0.297l-0.055-0.013
	c-0.133-0.032-0.201-0.046-0.22-0.177c-0.014-0.076-0.092-0.1-0.181-0.096c-0.085,0.004-0.177,0.032-0.239,0.074
	c-0.125,0.086-0.377,0.104-0.295-0.063c0.012-0.027,0.033-0.035,0.044-0.053c-0.651,0.137-1.304,0.313-1.95,0.529
	c0.146-0.004,0.209,0.008,0.305,0.008c0.126,0-0.127,0.148-0.127,0.148s-0.377,0.129-0.484,0.213l-0.013,0.012
	c-0.091,0.086-0.05,0.223-0.05,0.223s0.021,0,0.05,0c0.068-0.002,0.19-0.007,0.265-0.023c0.104-0.023,0.189-0.063,0.461-0.232
	c0.09-0.053,0.141-0.082,0.176-0.1c0.08-0.033,0.083-0.015,0.182-0.07c0.146-0.088,0.04,0.23,0.04,0.23l0.399-0.147l0.323-0.015
	l0.118-0.006l0.126-0.234l-0.244-0.052l-0.134-0.032l0.127-0.127h0.007c0.059,0,0.424,0.002,0.539,0.024
	c0.128,0.019,0,0.167,0,0.167l-0.04,0.166l-0.146,0.275c0,0-0.19,0.021-0.337,0.021h-0.016c-0.144,0.01-0.3,0.168-0.3,0.168
	l-0.295,0.21h-0.354h-0.07l-0.063,0.233l-0.337-0.039c0,0-0.039-0.106-0.062-0.254c-0.022-0.15-0.168,0-0.168,0
	s-0.06,0.25-0.202,0.358c-0.027,0.021-0.057,0.035-0.093,0.042C93.879,134.688,93.71,134.898,93.71,134.898z M98.294,132.666
	c-0.182,0.018-0.361,0.033-0.54,0.057c0.022,0.004,0.04,0.014,0.099,0.025c0.125,0.021,0.021,0.061,0.021,0.165
	c0,0.069,0.03,0.097,0.134,0.116c0.053,0.009,0.124,0.019,0.227,0.033c0.296,0.041,0.103-0.087,0.063-0.338
	C98.294,132.703,98.29,132.682,98.294,132.666z M97.159,132.913c0,0,0.021-0.043,0.04-0.106c-0.032,0.006-0.061,0.009-0.091,0.014
	C97.151,132.857,97.159,132.913,97.159,132.913z M99.569,132.582c-0.022,0.05-0.039,0.103-0.033,0.166
	c0.022,0.188,0.064,0,0.189-0.043c0.077-0.027,0.095-0.056,0.109-0.125C99.751,132.579,99.662,132.582,99.569,132.582z
	 M87.237,138.171l0.266,0.019l0.336-0.212l0.336,0.103l-0.189,0.088c0,0-0.186,0.271-0.23,0.399
	c-0.044,0.125,0.504,0.103,0.504,0.103s0.146-0.4,0.146-0.568c0-0.166,0.441-0.274,0.441-0.274l0.125-0.337l0.213,0.15
	c0,0,0.123-0.234,0.104-0.338c-0.024-0.105-0.4-0.129-0.4-0.129l0.376-0.188l0.38,0.104l-0.086,0.737h0.377l0.086,0.128
	c0,0-0.525,0.294-0.633,0.294c-0.102,0-0.336,0.276-0.336,0.276l-0.209,0.234c0,0,0.084,0.125,0.25,0.168
	c0.166,0.039,0.166,0.146,0.166,0.146s0.232-0.084,0.232-0.211c0-0.126-0.084-0.166-0.084-0.166s0.188-0.213,0.314-0.359
	c0.124-0.148,0.798-0.443,0.926-0.593c0.123-0.146,0.039-0.25,0.039-0.25l0.316-0.19c0,0,0.084-0.4,0.125-0.504
	c0.041-0.104,0.484-0.317,0.8-0.549c0.316-0.234,0.358-0.253,0.776-0.359c0.424-0.106,0.128-0.151,0.105-0.277
	c-0.021-0.127-0.358,0.17-0.358,0.17l-0.504-0.15c0,0,0.21,0,0.421-0.166c0.213-0.167,0.167-0.042,0.314-0.104
	c0.149-0.063,0.105-0.128,0.105-0.128h0.23c0,0,0.191-0.188,0.297-0.358c0.104-0.167,0.337-0.486,0.337-0.486
	s-0.524,0.298-0.632,0.338c-0.102,0.04-0.272-0.04-0.398-0.04c-0.128,0-0.314,0.209-0.527,0.293
	c-0.21,0.088-0.441,0.214-0.441,0.214l-0.313-0.063l-0.252,0.103l-0.611,0.253c0,0,0.104-0.083,0.36-0.232
	c0.253-0.15,0.503-0.298,0.503-0.298l0.4-0.102l0.033-0.207c-0.16,0.086-0.32,0.166-0.482,0.259
	C89.755,135.812,88.395,136.915,87.237,138.171z M103.073,155.34c0.424-1.352,0.832-2.749,1.215-4.188
	c3.408-12.741,3.801-23.708,0.885-24.49c-1.258-0.338-2.924,1.272-4.688,4.23c-0.021,0-0.036,0-0.056,0
	c1.976,0.046,3.933,0.399,5.794,1.043c0.033,0.61,0.037,1.173,0.035,1.627c0.002,0,0.002,0,0.002,0
	c-0.002,0.369-0.007,0.662-0.013,0.834c-0.058,1.602-0.202,3.24-0.413,4.892c-0.08-0.027-0.166-0.047-0.246-0.054
	c-0.227-0.016-0.232-0.002-0.229,0c-0.004-0.002-0.19-0.16-0.26-0.279c-0.071-0.12-0.208-0.21-0.47-0.297
	c-0.262-0.091-0.243,0.104-0.243,0.104s-0.243,0.172-0.558,0.141c-0.301-0.035-0.376,0.302-0.38,0.327h-0.002l-0.227,0.194
	c0,0-0.121,0.209-0.261,0.209c-0.141,0-0.243,0.033-0.243,0.033s-0.068,0.262-0.068,0.4c0,0.141-0.141,0.16-0.141,0.16
	s-0.174,0.033-0.296,0.087c-0.122,0.051-0.243,0.122-0.366,0.19c-0.121,0.069-0.07,0.123-0.313,0.264
	c-0.243,0.137-0.33,0.189-0.33,0.189l-0.33,0.069l0.171,0.175l-0.26,0.053c0,0-0.02,0.156,0.016,0.277
	c0.033,0.123,0.301,0.141,0.301,0.141s-0.175,0.14-0.385,0.229s-0.21,0.121-0.191,0.21c0.017,0.089,0.139,0.278,0.485,0.366
	c0.353,0.088,0.104-0.018,0.261-0.103c0.16-0.089,0.33-0.14,0.33-0.14s0.213,0.35,0.213,0.504c0,0.156-0.053,0.453-0.034,0.561
	c0.018,0.104,0.19-0.035,0.19-0.035l-0.156,0.173c0,0,0.033,0.313,0.033,0.403c0,0.088,0.311,0.033,0.311-0.053
	c0-0.085,0.171-0.229,0.433-0.243c0.261-0.019,0.228-0.052,0.228-0.261c0-0.21,0.051-0.489,0.051-0.489l0.298-0.089
	c0,0,0.17-0.128,0.282-0.233c0.029-0.028,0.051-0.056,0.068-0.08c0.036-0.056-0.006-0.112-0.068-0.165
	c-0.053-0.045-0.119-0.091-0.16-0.129c-0.089-0.088-0.122-0.365-0.122-0.541c0-0.174,0-0.104,0.021-0.229
	c0.016-0.111,0.146-0.119,0.262-0.146c0.011-0.004,0.021-0.007,0.033-0.01c0.121-0.035,0.277-0.243,0.503-0.35
	c0.226-0.108-0.122-0.123-0.122-0.123s0.036-0.19,0.07-0.35c0.034-0.158,0.486,0.053,0.486,0.053l0.174,0.208l-0.208,0.158
	l-0.24,0.364l-0.347,0.453l0.278,0.73c0,0,0.241,0.121,0.398,0.103c0.162-0.016,0.334-0.103,0.435-0.19
	c0.046-0.034,0.267-0.098,0.51-0.15l-0.081,0.488c-0.079,0.032-0.168-0.033-0.366-0.033c-0.272,0-0.344,0.125-0.59,0.148
	c-0.248,0.027-0.1,0.198-0.1,0.321s0.346,0.272,0.346,0.272l-0.271,0.172c0,0-0.125-0.271-0.367-0.246
	c-0.243,0.025-0.148,0.345-0.299,0.469c-0.147,0.123,0.1,0.498,0.1,0.498s-0.178,0.02-0.34,0.111
	c-0.02,0.014-0.038,0.022-0.057,0.034c-0.172,0.121-0.221,0.025-0.221,0.025s-0.1-0.149-0.222-0.149
	c-0.124,0-0.301,0.197-0.424,0.245c-0.124,0.05-0.542,0-0.542,0l-0.273-0.298l-0.225,0.226c0,0-0.197-0.049-0.321-0.2
	c-0.118-0.148,0-0.121-0.025-0.246c-0.022-0.123-0.073-0.123-0.073-0.123l0.123-0.196l0.321-0.198c0,0,0.073-0.443-0.075-0.641
	c-0.149-0.199-0.149,0.197-0.149,0.197l-0.493,0.32l0.025,0.668l-0.101,0.296l-0.191-0.046l-0.124,0.148
	c0,0-0.124-0.074-0.318-0.148c-0.199-0.075-0.544,0.246-0.544,0.246l-0.044,0.109l-0.079,0.186l-0.271-0.051l-0.147,0.174
	c0,0-0.172,0-0.299,0c-0.126,0-0.049,0.222-0.049,0.222s-0.085,0.099-0.181,0.136l-0.043-0.057c-0.145-0.02-0.181,0-0.269,0.072
	c-0.04,0.033-0.1,0.052-0.158,0.068c-0.069,0.016-0.131,0.022-0.131,0.022l-0.126-0.323c0,0-0.089-0.165-0.177-0.035
	c-0.091,0.128-0.056,0.215-0.056,0.215l0.036,0.22l-0.18,0.018l-0.035-0.011l-0.09-0.026l-0.311-0.188l-0.047-0.027
	c0,0-0.215-0.036-0.177,0.105c0.034,0.145,0.216,0.324,0.216,0.414c0,0.012,0.005,0.018,0.012,0.023
	c0.053,0.063,0.312,0.045,0.312,0.16c0,0.125-0.164,0.27-0.164,0.27s0.126,0.105,0.126,0.271c0,0.161-0.037,0.396-0.073,0.501
	c-0.035,0.106-0.124,0.071-0.161,0.182c-0.01,0.027-0.027,0.056-0.043,0.086c-0.057,0.094-0.135,0.182-0.135,0.182
	s-0.27,0.072-0.361,0.035c-0.093-0.035-0.164-0.165-0.324-0.197c-0.037-0.009-0.065-0.009-0.088-0.006
	c-0.063,0.008-0.073,0.041-0.232-0.066c-0.219-0.145-0.287-0.199-0.433-0.252c-0.144-0.051-0.215-0.18-0.215-0.18
	s-0.029-0.018-0.065-0.035c-0.066-0.039-0.166-0.089-0.223-0.089c-0.091,0-0.232,0.163-0.232,0.163s0.033,0.143,0,0.323
	c-0.033,0.179,0.033,0.271-0.072,0.343c-0.105,0.071-0.125,0.017-0.143,0.162c-0.02,0.145,0.071,0.072-0.072,0.216
	c-0.129,0.132-0.07,0.128-0.162,0.194c-0.012,0.006-0.024,0.016-0.035,0.023c-0.146,0.092-0.198,0.072-0.289,0.217
	c-0.092,0.145-0.125,0.303-0.125,0.433c0,0.125,0.393,0.573,0.393,0.573s0.027,0.008,0.057,0.018
	c0.063,0.02,0.162,0.063,0.162,0.146c0,0.128-0.146,0.182,0,0.272c0.144,0.091,0.072,0.105,0.16,0.162
	c0.044,0.026,0.314,0.085,0.582,0.142c0.293,0.057,0.586,0.11,0.586,0.11l0.197-0.144h0.164h0.178l0.088-0.307l0.271-0.018
	l0.019-0.291c0,0-0.035-0.288,0.053-0.288c0.043,0,0.176-0.075,0.301-0.149c0.125-0.077,0.238-0.158,0.238-0.158
	s0.069,0.016,0.162,0.028c0.137,0.021,0.322,0.035,0.377-0.01c0.092-0.071,0.289-0.36,0.289-0.36s-0.041-0.23,0.006-0.329
	c0.014-0.032,0.033-0.048,0.064-0.048c0.144,0,0.487,0.02,0.594,0.127c0.107,0.105,0.375,0.25,0.484,0.232
	c0.095-0.018,0.242-0.111,0.35-0.187l0.045-0.032c0.038-0.028,0.146-0.103,0.262-0.19c0.005,0.009,0.008,0.013,0.008,0.013
	s0.25,0.034,0.322,0.164c0.072,0.124,0.107,0.359,0.072,0.502c-0.035,0.141,0.232,0.27,0.322,0.376s0.523,0.684,0.665,0.863
	c0.144,0.177,0.432,0.502,0.432,0.502l0.144,0.345l-0.303,0.216c0,0-0.324-0.019-0.434-0.055c-0.106-0.036-0.195,0.071-0.195,0.071
	s-0.074-0.035-0.234-0.178c-0.162-0.145-0.052,0.019-0.251,0.127c-0.196,0.106,0.251,0.269,0.362,0.359
	c0.104,0.094,0.248,0.249,0.318,0.345c0.072,0.089,0.253-0.032,0.253-0.18c0-0.146,0.019-0.27,0.019-0.27h0.321l0.199-0.233
	l0.165-0.143l0.072-0.2l-0.127-0.36c0,0,0.221-0.071,0.301-0.071c0.094,0,0.182,0.271,0.182,0.271l0.093,0.035
	c0,0,0-0.217-0.055-0.306c-0.053-0.092-0.341-0.306-0.341-0.306s-0.322-0.125-0.418-0.197c-0.088-0.071-0.299-0.449-0.411-0.646
	c-0.105-0.198-0.032-0.22-0.053-0.306c-0.019-0.091-0.2-0.199-0.271-0.321c-0.072-0.128-0.051-0.306-0.051-0.306
	s0.162-0.107,0.342-0.217c0.063-0.037,0.095-0.064,0.098-0.08c0.072,0.074,0.259,0.29,0.259,0.421c0,0.163,0.071,0.343,0.107,0.45
	c0.036,0.105,0.251,0.197,0.539,0.251s0.196,0.251,0.196,0.251s0.27,0.324,0.304,0.541c0.033,0.216,0.033,0.323,0.054,0.593
	c0.018,0.27,0.146,0.303,0.231,0.562c0.091,0.249,0.123,0.249,0.179,0.445c0.025,0.092,0.043,0.183,0.075,0.272
	c-0.177,0.66-0.366,1.325-0.565,1.993c-0.166,0.157-0.288,0.727-0.288,0.727s-0.055,0.033-0.132,0.052h0.001l-0.374-0.09l0,0
	c-0.188-0.204-0.625-0.285-0.854-0.435c-0.235-0.16-0.235-0.5-0.421-0.658c-0.184-0.16-0.314-0.078-0.314-0.078
	s-0.522-0.106-0.63-0.237c-0.056-0.07-0.15-0.177-0.225-0.261c-0.066-0.076-0.119-0.131-0.119-0.131s0.051-0.05,0.119-0.104
	c0.078-0.066,0.176-0.144,0.248-0.159c0.131-0.028-0.052-0.292-0.21-0.555c-0.158-0.262,0.42-0.342,0.393-0.473
	c-0.027-0.128-0.276-0.132-0.433-0.205l-0.014-0.004c-0.158-0.082-0.521,0-0.521,0l-0.5-0.104c0,0-0.158,0.05-0.289,0.104
	c-0.046,0.019-0.106,0.009-0.169-0.022c-0.114-0.047-0.234-0.164-0.3-0.3c-0.072-0.144-0.221-0.113-0.369-0.124
	c-0.069-0.006-0.143-0.019-0.207-0.059c-0.072-0.043-0.135-0.06-0.193-0.057c-0.115,0.004-0.222,0.066-0.358,0.086
	c-0.171,0.021-0.399,0.078-0.55,0.097c-0.031,0.007-0.059,0.011-0.08,0.011c-0.131,0-0.291,0.102-0.473,0.209
	c-0.184,0.104-0.234-0.29-0.234-0.29s-0.057,0-0.16-0.019c-0.104-0.021-0.27-0.059-0.472-0.139
	c-0.393-0.161-0.211-0.396-0.211-0.396s-0.071,0.061-0.222,0.19c-0.049,0.042-0.104,0.095-0.169,0.152
	c-0.263,0.233-0.342,0.341-0.577,0.315c-0.233-0.028-0.366,0.078-0.523,0.158c-0.146,0.073-0.467,0.633-0.514,0.724
	c-3.126-1.077-6.216-2.341-9.008-3.825c-0.121-0.066-0.318-0.173-0.561-0.311c0,0,0,0,0,0.002c-0.414-0.234-0.965-0.563-1.553-0.94
	c0.376-1.946,1.053-3.827,2.008-5.573c-0.015,0.023-0.028,0.044-0.036,0.069c-3.436,0.05-5.663,0.695-5.999,1.952
	c-0.779,2.928,8.89,8.066,21.597,11.484C100.279,154.688,101.692,155.032,103.073,155.34z M99.21,149.956
	c-0.087,0.034-0.087,0.23-0.087,0.23s0.07,0.087,0.159,0.104c0.058,0.013,0.125,0.007,0.219-0.015
	c0.041-0.009,0.094-0.021,0.152-0.038c0.172-0.051,0.068-0.141,0.104-0.263c0.033-0.123,0.033-0.283,0.104-0.406
	c0.07-0.121-0.143-0.212-0.143-0.212s-0.162,0.229-0.221,0.322l-0.007,0.013C99.438,149.776,99.3,149.92,99.21,149.956z
	 M99.499,149.014c0.095-0.019,0.302-0.076,0.346-0.186c0.051-0.141,0.034-0.068,0.089-0.229c0.054-0.16-0.142,0.053-0.142,0.053
	l-0.23,0.141l-0.063,0.137l-0.041,0.092C99.458,149.021,99.472,149.021,99.499,149.014z"/>
<g>
	<g>
		<path fill="#70BFFF" d="M226.573,135.813c-1.453-1.057-3.318-2.1-4.717-1.787l2.904-7.219c0.396-0.977-0.582-1.955-1.561-1.559
			l-7.225,2.897c0.313-1.397-0.732-3.265-1.788-4.716c-0.618-0.846-1.956-0.552-2.147,0.48c-0.553,2.97-1.933,6.311-2.635,7.889
			c0.773,0.498,1.5,1.086,2.172,1.752l4.873,4.871c0.672,0.672,1.254,1.393,1.758,2.172c1.572-0.701,4.914-2.082,7.885-2.633
			C227.125,137.77,227.425,136.43,226.573,135.813z M209.951,135.177c-2.124-2.124-4.86-3.144-7.573-3.144
			c-3.702,0-7.362,1.901-9.373,5.478l-5.352,9.509l5.809,9.575l-8.348-5.064l-11.773,20.943c-1.236,2.203,0.51,4.59,2.658,4.59
			c0.492,0,1.009-0.125,1.519-0.408l9.151-5.141l-3.072-5.699l6.744,3.635l18.807-10.564l-5.16-9.011l10.278,5.886
			c4.597-3.973,5.059-11.207,0.558-15.712L209.951,135.177z"/>
	</g>
</g>
</svg>
